<?xml version="1.0" standalone="no"?>
<!DOCTYPE svg PUBLIC "-//W3C//DTD SVG 1.1//EN" "http://www.w3.org/Graphics/SVG/1.1/DTD/svg11.dtd" >
<svg xmlns="http://www.w3.org/2000/svg">
<metadata></metadata>
<defs>
<font id="btf_mono_v6regular" horiz-adv-x="650" >
<font-face units-per-em="1000" ascent="800" descent="-200" />
<missing-glyph horiz-adv-x="500" />
<glyph horiz-adv-x="0" />
<glyph horiz-adv-x="333" />
<glyph unicode=" " />
<glyph unicode="$" d="M575 179q0 -75 -56 -129t-146 -63v-116q0 -14 -10 -24t-24 -10t-24 10t-10 24v117q-96 11 -179 70q-11 7 -14 21t4 25q8 14 23.5 17.5t28.5 -6.5q60 -47 137 -58v291q-93 32 -138 75t-45 119q0 70 51 124.5t132 65.5v111q0 14 10 24t24 10t24 -10t10 -24v-110 q93 -9 157 -61q12 -10 13.5 -25t-8.5 -26t-24.5 -12.5t-25.5 8.5q-46 39 -112 47v-269q109 -37 155.5 -86.5t46.5 -129.5zM190 542q0 -44 28.5 -71.5t86.5 -50.5v242q-50 -11 -82.5 -45t-32.5 -75zM373 56q59 8 96.5 42t37.5 81q0 95 -134 145v-268z" />
<glyph unicode="%" d="M156 347q-61 0 -97 50.5t-36 136.5t36 136.5t97 50.5h381q19 0 29 -16.5t1 -33.5l-117 -228q-10 -19 -31 -19q-20 0 -30 16.5t-1 33.5l92 179h-324q-29 0 -46.5 -32.5t-17.5 -86.5q0 -55 17.5 -87t46.5 -32t46 32t17 87v14q-1 15 9 26t25 11q14 0 24 -9.5t11 -23.5v-18 q0 -86 -35.5 -136.5t-96.5 -50.5zM500 -14q-61 0 -97 51t-36 136t36 136t97 51t96.5 -50.5t35.5 -136.5t-35.5 -136.5t-96.5 -50.5zM500 54q29 0 46 32t17 87t-17 87t-46 32t-46.5 -32t-17.5 -87t17.5 -87t46.5 -32zM130 -7q-20 0 -30 17t-1 34l116 227q9 19 31 19 q19 0 29.5 -17t1.5 -34l-117 -227q-10 -19 -30 -19z" />
<glyph unicode="'" d="M289 476q-19 -9 -30 10q-6 10 -3 20.5t14 15.5q67 30 75 118h-3q-28 0 -48 20t-20 48t20 48t48 20q66 0 68 -77q1 -76 -30 -138.5t-91 -84.5z" />
<glyph unicode="+" d="M471 314q14 0 24 -10t10 -24t-10 -24t-24 -10h-112v-112q0 -14 -10 -24t-24 -10t-24 10t-10 24v112h-112q-14 0 -24 10t-10 24t10 24t24 10h112v112q0 14 10 24t24 10t24 -10t10 -24v-112h112z" />
<glyph unicode="," d="M246 -164q-19 -9 -30 10q-6 10 -3 20.5t14 15.5q67 30 75 118h-3q-28 0 -48 20t-20 48t20 48t48 20q66 0 68 -77q2 -76 -29 -138.5t-92 -84.5z" />
<glyph unicode="-" d="M234 265q-14 0 -24 10t-10 24t10 24t24 10h187q14 0 24 -10t10 -24t-10 -24t-24 -10h-187z" />
<glyph unicode="." d="M325 -14q-31 0 -53 22t-22 53t22 53t53 22t53 -22t22 -53t-22 -53t-53 -22z" />
<glyph unicode="/" d="M156 -7q-19 0 -29.5 17t-1.5 34l338 658q10 19 31 19q19 0 29.5 -17t1.5 -34l-338 -658q-9 -19 -31 -19z" />
<glyph unicode="0" d="M325 -14q-122 0 -193.5 101t-71.5 273t71.5 273t193.5 101t193.5 -101t71.5 -273t-71.5 -273t-193.5 -101zM325 54q88 0 140.5 83t52.5 223t-52.5 223t-140.5 83t-140 -83t-52 -223t52 -223t140 -83zM325 292q-28 0 -48 20t-20 48t20 48t48 20q29 0 48.5 -20t19.5 -48 t-19.5 -48t-48.5 -20z" />
<glyph unicode="1" d="M516 68q14 0 24 -10t10 -24t-10 -24t-24 -10h-374q-14 0 -24 10t-10 24t10 24t24 10h119q29 0 48.5 20t19.5 48v499l-170 -98q-12 -7 -25 -3t-21 16q-7 12 -3.5 25.5t15.5 20.5l204 118h68v-578q0 -35 -18 -68h137z" />
<glyph unicode="2" d="M104 43q0 17 10 27q223 239 306 343q50 63 50 124q0 52 -45 89t-108 37q-90 0 -151 -56q-11 -10 -25 -9.5t-25 11.5t-10 26t12 26q76 70 201 70q95 0 157 -56t62 -138t-75 -174q-63 -77 -128 -150.5t-98 -108.5l-33 -36h307q14 0 24 -9.5t11 -22.5q1 -15 -9 -25.5 t-25 -10.5h-365q-18 0 -30.5 12.5t-12.5 30.5z" />
<glyph unicode="3" d="M307 -14q-78 0 -134 34.5t-85 75.5q-8 12 -6.5 26t13.5 23q11 8 24.5 6.5t22.5 -12.5q25 -32 67.5 -58.5t96.5 -26.5q80 0 132.5 38t52.5 101t-53 103t-132 40h-50v69h50q70 0 117 37t47 96q0 57 -47 92.5t-117 35.5q-89 0 -147 -72q-9 -11 -23 -12.5t-26 7.5 q-11 8 -12.5 22t6.5 26q66 97 203 97q99 0 165 -55t66 -141q0 -109 -102 -166q57 -28 89.5 -74t32.5 -104q0 -96 -70.5 -152t-180.5 -56z" />
<glyph unicode="4" d="M465 -7q-13 1 -22.5 11t-9.5 24v149h-356q-15 0 -26 11q-20 20 -2 44l391 477q10 13 27 12.5t27 -13.5q17 -22 0 -43l-346 -420h285v153h68v-153h79v-68h-79v-150q0 -15 -10.5 -25t-25.5 -9z" />
<glyph unicode="5" d="M312 -14q-77 0 -140.5 30t-91.5 79q-7 12 -4 26t14 22q12 8 26.5 5t22.5 -14q53 -71 153 -79q84 -7 146 49t61 139q-1 77 -55.5 131t-131.5 54q-78 0 -132 -40q-13 -10 -29.5 -9.5t-29.5 11.5q-20 17 -15 43l42 252q2 13 11.5 21t21.5 8h305q14 0 24 -10t10 -24t-10 -24 t-24 -10h-274l-31 -179q61 29 131 29q106 0 180.5 -74.5t74.5 -180.5t-74.5 -180.5t-180.5 -74.5z" />
<glyph unicode="6" d="M73 360q0 172 71.5 273t193.5 101q132 0 203 -97q8 -11 6.5 -25.5t-12.5 -22.5q-11 -10 -26 -8t-24 13q-58 72 -147 72q-77 0 -127 -65t-63 -184q71 79 190 79q105 0 175 -74t70 -181q0 -110 -69.5 -182.5t-175.5 -72.5q-122 0 -193.5 101t-71.5 273zM147 325 q7 -126 58 -198.5t133 -72.5q77 0 127 53t50 134q0 78 -50.5 132.5t-126.5 54.5q-61 0 -112.5 -28.5t-78.5 -74.5z" />
<glyph unicode="7" d="M495 646h-374q-14 0 -24 10t-10 24t10 24t24 10h423q15 0 25.5 -10.5t10.5 -25.5q0 -9 -4 -16l-329 -662h-77z" />
<glyph unicode="8" d="M325 -14q-106 0 -180.5 61t-74.5 147q0 56 34.5 103t91.5 75q-49 27 -77.5 70t-28.5 95q0 83 68.5 140t166.5 57t166.5 -57t68.5 -140q0 -52 -28.5 -95t-77.5 -70q57 -28 91.5 -75t34.5 -103q0 -86 -74.5 -147t-180.5 -61zM325 401q70 0 118 38.5t48 97.5q0 56 -48 92.5 t-118 36.5t-118 -36.5t-48 -92.5q0 -59 48 -97.5t118 -38.5zM325 54q78 0 132.5 40t54.5 99q0 66 -54 106.5t-133 40.5t-133 -40.5t-54 -106.5q0 -59 54.5 -99t132.5 -40z" />
<glyph unicode="9" d="M577 360q0 -172 -71.5 -273t-193.5 -101q-132 0 -203 97q-8 11 -6.5 25.5t12.5 22.5q11 10 26 8t24 -13q58 -72 147 -72q77 0 127 65t63 184q-71 -79 -190 -79q-105 0 -175 74t-70 181q0 110 69.5 182.5t175.5 72.5q122 0 193.5 -101t71.5 -273zM503 395 q-7 126 -58 198.5t-133 72.5q-77 0 -127 -53t-50 -134q0 -78 50.5 -132.5t126.5 -54.5q61 0 112.5 28.5t78.5 74.5z" />
<glyph unicode=":" d="M325 343q-31 0 -53 21.5t-22 53.5t22 53.5t53 21.5t53 -21.5t22 -53.5t-22 -53.5t-53 -21.5zM325 -14q-31 0 -53 22t-22 53t22 53t53 22t53 -22t22 -53t-22 -53t-53 -22z" />
<glyph unicode="&#x3c;" horiz-adv-x="600" d="M428 149q13 -7 16.5 -20.5t-3.5 -26.5t-20.5 -16.5t-26.5 4.5l-246 143q-13 3 -19 15q-7 13 -3.5 26.5t15.5 20.5l253 145q13 8 26.5 4.5t20.5 -16.5q7 -12 3 -25.5t-16 -20.5l-201 -116z" />
<glyph unicode="&#x3e;" d="M479 295q12 -7 15.5 -20.5t-3.5 -26.5q-6 -12 -19 -15l-246 -143q-13 -8 -26.5 -4.5t-20.5 16.5t-3.5 26.5t16.5 20.5l201 117l-201 116q-12 7 -16 20.5t3 25.5q7 13 20.5 16.5t26.5 -4.5z" />
<glyph unicode="?" d="M512 554q0 46 -48 78.5t-112 32.5q-131 0 -236 -73q-28 -19 -48 1q-11 11 -10 27t14 26q116 88 280 88q95 0 161.5 -52.5t66.5 -127.5q0 -53 -25 -93t-65.5 -61.5t-84 -32t-87.5 -10.5v-89q0 -14 -10 -24t-24 -10t-24 10t-10 24v143q112 0 187 37t75 106zM284 -14 q-32 0 -53.5 22t-21.5 53t21.5 53t53.5 22t53.5 -22t21.5 -53t-21.5 -53t-53.5 -22z" />
<glyph unicode="@" d="M45 251q0 212 88.5 347.5t218.5 135.5q114 0 176 -80t62 -226v-428h-68v30q-44 -44 -102 -44q-72 0 -121 66.5t-49 171.5t49 171.5t121 66.5q58 0 102 -44v27q0 106 -44 163.5t-126 57.5q-100 0 -169 -116.5t-69 -298.5t68.5 -298.5t169.5 -116.5q58 0 102 23 q12 6 24.5 2t19.5 -15q7 -13 3.5 -27t-16.5 -21q-58 -30 -133 -30q-130 0 -218.5 135.5t-88.5 347.5zM318 224q0 -81 33 -125.5t69 -44.5q49 0 81 43t32 127t-32 127t-81 43q-36 0 -69 -44.5t-33 -125.5z" />
<glyph unicode="A" d="M571 37q5 -17 -5 -30.5t-28 -13.5q-25 0 -32 23l-50 156h-263l-50 -156q-8 -23 -32 -23q-17 0 -27 14t-5 30l211 649v1l4 11q8 22 31 22t30 -22l4 -11v-1zM434 240l-109 340l-110 -340h219z" />
<glyph unicode="B" d="M555 213q0 -86 -59.5 -148t-144.5 -65h-221q-14 0 -24 10t-10 24v646q0 14 10 24t24 10h196q74 0 126 -52t52 -126q0 -95 -84 -140q61 -20 98 -68.5t37 -114.5zM164 425h162q45 0 77.5 32.5t32.5 78.5q0 45 -32.5 77.5t-77.5 32.5h-162v-221zM343 68q59 0 101.5 42.5 t42.5 102.5q0 59 -42.5 101.5t-101.5 42.5h-179v-289h179z" />
<glyph unicode="C" d="M340 0q-128 0 -201.5 101t-73.5 273t73.5 273t201.5 101q64 0 119 -28.5t87 -78.5q8 -13 5.5 -28.5t-15.5 -22.5t-27 -4t-22 15q-54 79 -147 79q-97 0 -149.5 -82t-52.5 -224t52.5 -224t149.5 -82q60 0 108 33.5t69 86.5l64 -35q-33 -69 -97.5 -111t-143.5 -42z" />
<glyph unicode="D" d="M243 714q145 0 231 -102.5t86 -254.5t-86 -254.5t-231 -102.5h-153q-14 0 -24 10t-10 24v646q0 14 10 24t24 10h153zM240 68q117 0 186 82.5t69 206.5q0 123 -70.5 206t-187.5 83h-113v-578h116z" />
<glyph unicode="E" d="M143 0q-14 0 -24 10t-10 24v646q0 14 10 24t24 10h340q15 0 25 -10.5t9 -25.5q-1 -13 -11 -22.5t-24 -9.5h-305v-241h255q15 0 25 -11t9 -26q-1 -13 -11 -22t-24 -9h-254v-269h312q14 0 24 -9.5t11 -22.5q1 -15 -9.5 -25.5t-24.5 -10.5h-347z" />
<glyph unicode="F" d="M173 -7q-14 0 -24 10t-10 24v653q0 14 10 24t24 10h339q14 0 24 -9.5t11 -22.5q1 -15 -9 -25.5t-25 -10.5h-306v-238h255q15 0 25 -11t9 -25t-11 -23t-24 -9h-254v-313q0 -14 -10 -24t-24 -10z" />
<glyph unicode="G" d="M551 74q-83 -88 -235 -88q-128 0 -201.5 101t-73.5 273t73.5 273t201.5 101q121 0 199 -70q11 -11 11.5 -26t-9.5 -26t-24.5 -11.5t-25.5 9.5q-61 56 -151 56q-97 0 -149.5 -82t-52.5 -224t52.5 -224t149.5 -82q104 0 167 55v197h-160v68h228v-300z" />
<glyph unicode="H" d="M483 707q14 0 24 -10t10 -24v-646q0 -14 -10 -24t-24 -10t-24 10t-10 24v303h-306v-303q0 -14 -10 -24t-24 -10t-24 10t-10 24v646q0 14 10 24t24 10t24 -10t10 -24v-275h306v275q0 14 10 24t24 10z" />
<glyph unicode="I" d="M512 68q14 0 24 -10t10 -24t-10 -24t-24 -10h-374q-14 0 -24 10t-10 24t10 24t24 10h85q29 0 48.5 20t19.5 48v510h-153q-14 0 -24 10t-10 24t10 24t24 10h374q14 0 24 -10t10 -24t-10 -24t-24 -10h-153v-510q0 -35 -18 -68h171z" />
<glyph unicode="J" d="M487 731q14 0 24 -10t10 -24v-452q0 -112 -58 -178.5t-153 -66.5q-115 0 -176.5 65.5t-61.5 179.5h66q0 -84 40 -130.5t122 -46.5q72 0 112.5 45t40.5 132v452q0 14 10 24t24 10z" />
<glyph unicode="K" d="M591 49q9 -11 7.5 -25.5t-12.5 -22.5q-11 -9 -24.5 -8t-22.5 12l-234 286q-20 23 -50.5 27.5t-53.5 -13.5l-44 -45v-260h-68v714h68v-357l349 353q10 10 24 10t25 -10q10 -10 10 -24t-10 -24l-276 -279q46 -11 78 -49z" />
<glyph unicode="L" d="M146 0q-14 0 -24 10t-10 24v646q0 15 10.5 25t25.5 9q13 -1 22.5 -11t9.5 -24v-611h339q14 0 24 -9.5t11 -22.5q1 -15 -9 -25.5t-25 -10.5h-374z" />
<glyph unicode="M" d="M104 -7q-14 0 -24 10t-10 24v648q0 19 13.5 32.5t32.5 13.5q28 0 41 -26l168 -348l167 348q14 26 42 26q19 0 32.5 -13.5t13.5 -32.5v-648q0 -14 -10 -24t-24 -10t-24 10t-10 24v555l-153 -314h-68l-153 314v-555q0 -14 -10 -24t-24 -10z" />
<glyph unicode="N" d="M500 -7q-29 0 -42 25l-286 568v-586h-68v674q0 19 13.5 33t32.5 14q29 0 42 -26l286 -567v559q0 14 10 24t24 10t24 -10t10 -24v-648q0 -19 -13.5 -32.5t-32.5 -13.5z" />
<glyph unicode="O" d="M325 -14q-122 0 -193.5 101t-71.5 273t71.5 273t193.5 101t193.5 -101t71.5 -273t-71.5 -273t-193.5 -101zM325 54q88 0 140.5 83t52.5 223t-52.5 223t-140.5 83t-140 -83t-52 -223t52 -223t140 -83z" />
<glyph unicode="P" d="M110 680q0 14 10 24t24 10h207q88 0 149.5 -62.5t61.5 -150.5q0 -87 -62 -149.5t-149 -62.5h-173v-221l1 -68h-69v680zM350 357q60 0 102 42.5t42 101.5q0 60 -42 102.5t-102 42.5h-172v-289h172z" />
<glyph unicode="Q" d="M487 -24q10 -17 0.5 -34t-29.5 -17t-29 17l-37 63q-46 -19 -96 -19q-122 0 -193.5 101t-71.5 273t71.5 273t193.5 101t193.5 -101t71.5 -273q0 -221 -112 -319zM296 54q30 0 60 11l-48 81q-10 17 -0.5 34t29.5 17q19 0 30 -17l45 -76q77 82 77 256q0 141 -52 223.5 t-141 82.5q-88 0 -140 -82.5t-52 -223.5q0 -140 52 -223t140 -83z" />
<glyph unicode="R" d="M522 44q10 -17 0.5 -34t-29.5 -17t-29 17l-183 312l-121 1v-255l1 -68h-69v680q0 14 10 24t24 10h224q81 0 138.5 -57.5t57.5 -138.5q0 -79 -54.5 -136t-131.5 -60zM160 391h190q53 0 90.5 37t37.5 90t-37.5 90.5t-90.5 37.5h-190v-255z" />
<glyph unicode="S" d="M342 -14q-117 0 -216 72q-11 7 -14 21t4 25q8 14 23.5 17.5t28.5 -6.5q80 -61 174 -61q71 0 118 36t47 89q0 54 -40.5 92t-126.5 65q-112 35 -165 79.5t-53 126.5q0 78 62 135t157 57q113 0 189 -62q12 -10 13.5 -25t-8.5 -26t-24.5 -12.5t-25.5 8.5q-57 49 -142 49 q-63 0 -108 -37.5t-45 -86.5q0 -54 42 -83.5t136 -61.5q112 -38 159.5 -87.5t47.5 -130.5t-65.5 -137t-167.5 -56z" />
<glyph unicode="T" d="M512 714q14 0 24 -10t10 -24t-10 -24t-24 -10h-153v-619q0 -14 -10 -24t-24 -10t-24 10t-10 24v619h-153q-14 0 -24 10t-10 24t10 24t24 10h374z" />
<glyph unicode="U" d="M512 724q14 0 24 -10t10 -24v-459q0 -112 -60 -178.5t-161 -66.5t-161 66.5t-60 178.5v459q0 14 10 24t24 10t24 -10t10 -24v-459q0 -87 40.5 -133.5t112.5 -46.5t112.5 46.5t40.5 133.5v459q0 14 10 24t24 10z" />
<glyph unicode="V" d="M324 -7q-30 0 -40 30l-204 653q-5 17 5 31t27 14q26 0 33 -24l179 -585l180 585q7 24 32 24q17 0 27.5 -14.5t5.5 -30.5l-204 -653q-10 -30 -41 -30z" />
<glyph unicode="W" d="M148 -7q-14 0 -25 9t-13 23l-114 654q-3 17 7.5 29.5t26.5 12.5q13 0 23 -8.5t12 -21.5l92 -548l103 323h72l103 -323l92 548q2 13 12 21.5t23 8.5q16 0 26.5 -12.5t8.5 -29.5l-115 -654q-2 -14 -13 -23t-25 -9q-29 0 -37 27l-111 337l-111 -337q-8 -27 -37 -27z" />
<glyph unicode="X" d="M124 -7q-20 0 -30 18t0 35l192 316l-185 306q-10 17 0 35t30 18q21 0 30 -17l165 -279l165 279q10 17 29 17q21 0 31 -18t-1 -35l-185 -306l192 -316q10 -17 0 -35t-30 -18q-19 0 -30 17l-171 289l-172 -289q-11 -17 -30 -17z" />
<glyph unicode="Y" d="M531 721q20 0 30 -18t0 -35l-231 -374v-294h-68v294l-231 374q-10 17 0 35t30 18q18 0 29 -17l206 -333l206 333q11 17 29 17z" />
<glyph unicode="Z" d="M105 0q-14 0 -24 10t-10 24q0 10 6 19l405 593h-377q-14 0 -24 10t-10 24t10 24t24 10h442q14 0 24 -10t10 -24q0 -10 -6 -19l-399 -593h371q14 0 24 -10t10 -24t-10 -24t-24 -10h-442z" />
<glyph unicode="^" horiz-adv-x="600" d="M494 721q19 0 29.5 -17t1.5 -34l-337 -655q-8 -22 -32 -22h-1q-21 0 -30 19l-142 276q-9 17 1.5 34t29.5 17q21 0 31 -19l111 -216l307 598q10 19 31 19z" />
<glyph unicode="a" d="M319 493q90 0 155.5 -52t65.5 -135v-306h-68v36q-65 -53 -170 -53q-97 0 -159 44.5t-62 108.5t62 108.5t159 44.5q105 0 170 -53v70q0 50 -48 84.5t-122 34.5q-84 0 -148 -49q-23 -18 -43 2q-9 9 -9 22.5t10 22.5q77 70 207 70zM302 51q78 0 124 23t46 62q0 38 -46 61.5 t-124 23.5q-72 0 -112.5 -27t-40.5 -58t40.5 -58t112.5 -27z" />
<glyph unicode="b" d="M339 493q94 0 157.5 -74t63.5 -181q0 -106 -63.5 -180.5t-157.5 -74.5q-105 0 -170 90v-73h-68v687q0 14 10 24t24 10t24 -10t10 -24v-284q65 90 170 90zM330 51q75 0 118.5 54t43.5 133q0 81 -42 134t-120 53q-67 0 -114 -54.5t-47 -132.5q0 -79 50 -134q50 -53 111 -53 z" />
<glyph unicode="c" horiz-adv-x="624" d="M552 91q-91 -108 -229 -108q-106 0 -180.5 74.5t-74.5 180.5t74.5 180.5t180.5 74.5q123 0 207 -84q10 -10 9.5 -23.5t-10.5 -23.5t-23.5 -10t-23.5 9q-69 64 -159 64q-77 0 -132 -55t-55 -132t55 -132t132 -55q111 0 181 88z" />
<glyph unicode="d" d="M510 721q14 0 24 -10t10 -24v-687h-68v73q-65 -90 -170 -90q-94 0 -157.5 74t-63.5 181t63.5 181t157.5 74q105 0 170 -90v284q0 14 10 24t24 10zM426 103q50 56 50 135q0 77 -47 132t-114 55q-78 0 -120 -53.5t-42 -133.5q0 -79 43.5 -133t118.5 -54q64 0 111 52z" />
<glyph unicode="e" d="M570 91q-91 -108 -229 -108q-106 0 -180.5 74.5t-74.5 180.5t74.5 180.5t180.5 74.5q94 0 161 -61t67 -153q0 -14 -10 -24t-24 -10h-381v-7q0 -77 55 -132t132 -55q111 0 181 88zM341 425q-56 0 -102.5 -31t-68.5 -81h324q-12 50 -55 81t-98 31z" />
<glyph unicode="f" d="M406 663q-59 0 -97.5 -42t-38.5 -94v-51h204q14 0 24 -10t10 -24t-10 -24t-24 -10h-204v-306q0 -18 -6 -34h210q14 0 24 -10t10 -24t-10 -24t-24 -10h-374q-14 0 -24 10t-10 24t10 24t24 10h68q14 0 24 10t10 24v306h-102q-14 0 -24 10t-10 24t10 24t24 10h102v51 q0 85 59.5 144.5t144.5 59.5q61 0 102 -22q16 -8 18.5 -25t-10.5 -30q-17 -17 -39 -7q-29 16 -71 16z" />
<glyph unicode="g" d="M569 476q14 0 24 -10t10 -24t-10 -24t-24 -10h-40q-24 0 -32 -22q8 -24 8 -46q0 -66 -56 -109.5t-152 -43.5q-38 0 -75 8q-18 -5 -27.5 -14.5t-9.5 -18.5q0 -10 10 -20t28 -15q37 9 81 9q105 0 171.5 -46.5t66.5 -114.5q0 -69 -66.5 -115.5t-171.5 -46.5 q-104 0 -171 46.5t-67 115.5q0 77 83 125q-32 26 -32 62q0 37 34 63q-68 43 -68 115q0 65 59 109t155 44q99 0 158 -49q29 32 74 32h40zM297 255q71 0 105.5 26.5t34.5 58.5t-34.5 58.5t-105.5 26.5q-70 0 -104.5 -26.5t-34.5 -58.5t34.5 -58.5t104.5 -26.5zM474 -25 q0 34 -44.5 63.5t-125.5 29.5t-125.5 -29.5t-44.5 -63.5t44.5 -64t125.5 -30t125.5 30t44.5 64z" />
<glyph unicode="h" d="M343 493q78 0 132.5 -58t54.5 -146v-289h-68v289q0 64 -36.5 100t-99.5 36q-59 0 -97.5 -42t-38.5 -94v-262q0 -14 -10 -24t-24 -10t-24 10t-10 24v660q0 14 10 24t24 10t24 -10t10 -24v-263q61 69 153 69z" />
<glyph unicode="i" d="M354 612q-28 0 -48 20t-20 48t20 48t48 20t48 -20t20 -48t-20 -48t-48 -20zM507 68q14 0 24 -10t10 -24t-10 -24t-24 -10h-323q-14 0 -24 10t-10 24t10 24t24 10h102q14 0 24 10t10 24v238q0 28 -20 48t-48 20h-102v68h102q56 0 96 -40t40 -96v-238q0 -18 -6 -34h125z " />
<glyph unicode="j" d="M407 748q28 0 48 -20t20 -48t-19.5 -48t-48.5 -20q-28 0 -48 20t-20 48t20 48t48 20zM305 476q56 0 96 -40t40 -96v-323q0 -85 -59.5 -144.5t-144.5 -59.5q-67 0 -102 21q-15 9 -18 26t10 30q18 18 39 7q29 -16 71 -16q59 0 97.5 42t38.5 94v323q0 28 -20 48t-48 20h-129 v68h129z" />
<glyph unicode="k" d="M498 53q10 -11 8.5 -26t-13.5 -25t-27 -8.5t-25 13.5l-121 148l-11 13q-19 23 -49 26t-52 -16l-55 -45v-133h-68v687q0 14 10 24t24 10t24 -10t10 -24v-460l290 247q12 10 27 8.5t25 -12.5q10 -12 8.5 -27t-12.5 -26l-190 -159q37 -12 63 -44l9 -10z" />
<glyph unicode="l" d="M492 68q14 0 24 -10t10 -24t-10 -24t-24 -10h-323q-14 0 -24 10t-10 24t10 24t24 10h102q14 0 24 10t10 24v476q0 28 -19.5 48t-48.5 20h-102v68h102q56 0 96 -40t40 -96v-510h119z" />
<glyph unicode="m" d="M470 493q68 0 102 -41t34 -112v-340h-68v340q0 42 -23 63.5t-62 21.5t-62 -23t-23 -62v-313q0 -14 -10 -24t-24 -10t-24 10t-10 24v313q0 40 -23 62.5t-62 22.5q-37 0 -61 -20.5t-24 -47.5v-330q0 -14 -10 -24t-24 -10t-24 10t-10 24v449h68v-32q39 49 102 49 q90 0 122 -71q36 71 116 71z" />
<glyph unicode="n" d="M343 493q78 0 132.5 -58t54.5 -146v-289h-68v289q0 64 -36.5 100t-99.5 36q-59 0 -97.5 -42t-38.5 -94v-262q0 -14 -10 -24t-24 -10t-24 10t-10 24v449h68v-52q61 69 153 69z" />
<glyph unicode="o" d="M325 496q106 0 180.5 -74.5t74.5 -180.5t-74.5 -180.5t-180.5 -74.5t-180.5 74.5t-74.5 180.5t74.5 180.5t180.5 74.5zM325 428q-77 0 -132 -55t-55 -132q0 -59 33 -106l260 260q-47 33 -106 33zM325 54q77 0 132 55t55 132q0 59 -33 106l-260 -260q47 -33 106 -33z" />
<glyph unicode="p" d="M352 496q94 0 157.5 -74t63.5 -181t-63.5 -181t-157.5 -74q-105 0 -170 90v-216q0 -14 -10 -24t-24 -10t-24 10t-10 24v619h68v-73q65 90 170 90zM343 54q78 0 120 53.5t42 133.5q0 79 -43.5 133t-118.5 54q-64 0 -111 -52q-50 -56 -50 -135q0 -77 47 -132t114 -55z" />
<glyph unicode="q" d="M525 479v-619q0 -14 -10 -24t-24 -10t-24 10t-10 24v216q-65 -90 -170 -90q-94 0 -157.5 74t-63.5 181t63.5 181t157.5 74q105 0 170 -90v73h68zM296 54q67 0 114 55t47 132q0 79 -50 135q-47 52 -111 52q-75 0 -118.5 -54t-43.5 -133q0 -80 42 -133.5t120 -53.5z" />
<glyph unicode="r" d="M294 102q0 -18 -6 -34h210q14 0 24 -10t10 -24t-10 -24t-24 -10h-374q-14 0 -24 10t-10 24t10 24t24 10h68q14 0 24 10t10 24v238q0 28 -20 48t-48 20h-68v68h68q38 0 70 -19.5t50 -52.5q28 41 72.5 65t96.5 24q44 0 85 -22q16 -8 18.5 -25t-10.5 -30q-18 -18 -39 -7 q-29 16 -71 16q-59 0 -97.5 -42t-38.5 -94v-187z" />
<glyph unicode="s" d="M318 -14q-106 0 -203 59q-11 7 -14 20t4 23q16 24 41 10q89 -51 172 -51q81 0 121.5 24.5t40.5 67.5q0 13 -3.5 22.5t-14 16.5t-18.5 11.5t-27 9t-29.5 6t-36 5.5t-37.5 6q-43 7 -68 12t-56 15.5t-47.5 23t-28 33.5t-11.5 48q0 73 60 110.5t155 37.5q87 0 163 -35 q13 -6 17.5 -20.5t-4.5 -24.5l-1 -1q-19 -19 -37 -11q-73 31 -138 31q-66 0 -106.5 -21.5t-40.5 -61.5q0 -21 19.5 -34.5t43.5 -18.5t69 -12l21 -3q44 -7 72 -13t60 -17t50 -25.5t30 -37t12 -52.5q0 -73 -65 -113t-165 -40z" />
<glyph unicode="t" d="M521 63q13 -13 10 -29.5t-19 -25.5q-39 -22 -102 -22q-84 0 -144 59.5t-60 144.5v221h-88q-14 0 -24 10t-10 24t10 24t24 10h20q28 0 48 19.5t20 48.5v58q0 14 10 24t24 10t24 -10t10 -24v-126h232v-68h-232v-221q0 -52 39 -94t97 -42q40 0 70 15q23 12 41 -6z" />
<glyph unicode="u" d="M486 486q14 0 24 -10t10 -24v-449h-68v52q-61 -69 -153 -69q-78 0 -132.5 58t-54.5 146v262q0 14 10 24t24 10t24 -10t10 -24v-262q0 -64 36.5 -100t99.5 -36q59 0 97.5 42t38.5 94v262q0 14 10 24t24 10z" />
<glyph unicode="v" d="M325 -7q-35 0 -48 31l-184 412q-7 16 2.5 31.5t27.5 15.5q22 0 30 -20l172 -394l172 394q8 20 30 20q17 0 27 -15t3 -31l-184 -413q-13 -31 -48 -31z" />
<glyph unicode="w" d="M208 -7q-34 0 -44 33l-109 416q-4 15 6 28t26 13q11 0 20 -7t11 -18l92 -378l75 283h79l75 -283l91 378q7 25 32 25q16 0 26 -13t6 -29l-109 -415q-10 -33 -44 -33q-33 0 -43 32l-74 252l-73 -252q-10 -32 -43 -32z" />
<glyph unicode="x" d="M96 -7q-21 0 -29 19t6 35l180 195l-173 186q-15 16 -6.5 35.5t29.5 19.5q15 0 24 -11l168 -186l169 186q9 11 24 11q21 0 29.5 -19.5t-6.5 -35.5l-173 -186l180 -195q14 -15 6 -34.5t-30 -19.5q-13 0 -24 11l-175 192l-175 -192q-9 -11 -24 -11z" />
<glyph unicode="y" d="M151 -187q-60 0 -102 22q-16 8 -19 24t9 28q17 17 44 4q29 -13 68 -13q91 0 134 93l13 28l-195 438q-7 16 2.5 31t27.5 15q20 0 30 -20l168 -387l170 387q8 20 30 20q17 0 26.5 -15t2.5 -31l-224 -505q-24 -54 -74 -86.5t-111 -32.5z" />
<glyph unicode="z" d="M106 0q-14 0 -24.5 10.5t-10.5 24.5q0 13 9 24l330 349h-298q-14 0 -24 10t-10 24t10 24t24 10h366q14 0 24.5 -10.5t10.5 -24.5t-9 -23l-330 -350h312q14 0 24 -10t10 -24t-10 -24t-24 -10h-380z" />
<glyph unicode="|" d="M291 880q0 14 10 24t24 10t24 -10t10 -24v-1040q0 -14 -10 -24t-24 -10t-24 10t-10 24v1040z" />
<glyph unicode="&#xa0;" />
<glyph unicode="&#xa9;" d="M325 100q-106 0 -180.5 74.5t-74.5 180.5t74.5 180.5t180.5 74.5t180.5 -74.5t74.5 -180.5t-74.5 -180.5t-180.5 -74.5zM325 162q79 0 136 57t57 136t-57 136t-136 57t-136 -57t-57 -136t57 -136t136 -57zM327 234q-50 0 -85.5 36t-35.5 86q0 54 41 90t95 30 q40 -4 69 -27q11 -8 11 -21.5t-11 -21.5q-19 -15 -35 -1q-14 13 -39 16q-30 4 -53 -15t-24 -48t19 -49t48 -20q40 0 64 31l40 -39q-41 -47 -104 -47z" />
<glyph unicode="&#xad;" d="M234 265q-14 0 -24 10t-10 24t10 24t24 10h187q14 0 24 -10t10 -24t-10 -24t-24 -10h-187z" />
<glyph unicode="&#x2000;" horiz-adv-x="457" />
<glyph unicode="&#x2001;" horiz-adv-x="914" />
<glyph unicode="&#x2002;" horiz-adv-x="457" />
<glyph unicode="&#x2003;" horiz-adv-x="914" />
<glyph unicode="&#x2004;" horiz-adv-x="304" />
<glyph unicode="&#x2005;" horiz-adv-x="228" />
<glyph unicode="&#x2006;" horiz-adv-x="152" />
<glyph unicode="&#x2007;" horiz-adv-x="152" />
<glyph unicode="&#x2008;" horiz-adv-x="114" />
<glyph unicode="&#x2009;" horiz-adv-x="182" />
<glyph unicode="&#x200a;" horiz-adv-x="50" />
<glyph unicode="&#x2010;" d="M234 265q-14 0 -24 10t-10 24t10 24t24 10h187q14 0 24 -10t10 -24t-10 -24t-24 -10h-187z" />
<glyph unicode="&#x2011;" d="M234 265q-14 0 -24 10t-10 24t10 24t24 10h187q14 0 24 -10t10 -24t-10 -24t-24 -10h-187z" />
<glyph unicode="&#x2012;" d="M234 265q-14 0 -24 10t-10 24t10 24t24 10h187q14 0 24 -10t10 -24t-10 -24t-24 -10h-187z" />
<glyph unicode="&#x2013;" d="M179 265q-14 0 -24 10t-10 24t10 24t24 10h292q14 0 24 -10t10 -24t-10 -24t-24 -10h-292z" />
<glyph unicode="&#x2014;" d="M94 265q-14 0 -24 10t-10 24t10 24t24 10h462q14 0 24 -10t10 -24t-10 -24t-24 -10h-462z" />
<glyph unicode="&#x202f;" horiz-adv-x="182" />
<glyph unicode="&#x205f;" horiz-adv-x="228" />
<glyph unicode="&#x25fc;" horiz-adv-x="485" d="M0 485h485v-485h-485v485z" />
</font>
</defs>
</svg>
