<svg xmlns="http://www.w3.org/2000/svg"><symbol id="btf-full-logo" viewBox="0 0 82 42.2"><path d="M22.5 34.8c-.9 0-1.7.4-2.2 1V35h-1v6.5c0 .3.2.5.5.5s.5-.2.5-.5v-3.8c0-1 .8-2 2-2s2 .7 2 2V42h1v-4.2c0-1.8-1.3-3-2.8-3"/><path d="M41.5 34.8c-.9 0-1.7.4-2.2 1V35h-1v6.5c0 .3.2.5.5.5s.5-.2.5-.5v-3.8c0-1 .8-2 2-2s2 .7 2 2V42h1v-4.2c0-1.8-1.3-3-2.8-3"/><path d="M31.5 41.2c-1.5 0-2.2-.7-2.2-1.2s.7-1.2 2.2-1.2c1.5 0 2.5.5 2.5 1.2 0 .8-1 1.2-2.5 1.2m.3-6.4c-1.3 0-2.4.4-3 1-.2.2-.2.5 0 .7.2.2.4.2.6 0 .5-.5 1.2-.7 2.2-.7 1.5 0 2.5.8 2.5 1.8v1c-.6-.5-1.4-.8-2.5-.8-1.9 0-3.2 1-3.2 2.2s1.3 2.2 3.2 2.2c1.1 0 1.9-.3 2.5-.8v.6h1v-4.5c-.1-1.7-1.7-2.7-3.3-2.7"/><path d="M69.5 41.2c-1.5 0-2.2-.7-2.2-1.2s.7-1.2 2.2-1.2c1.5 0 2.5.5 2.5 1.2 0 .8-1 1.2-2.5 1.2m.3-6.4c-1.3 0-2.4.4-3 1-.2.2-.2.5 0 .7.2.2.4.2.6 0 .5-.5 1.2-.7 2.2-.7 1.5 0 2.5.8 2.5 1.8v1c-.6-.5-1.4-.8-2.5-.8-1.9 0-3.2 1-3.2 2.2s1.3 2.2 3.2 2.2c1.1 0 1.9-.3 2.5-.8v.6h1v-4.5c-.1-1.7-1.7-2.7-3.3-2.7"/><path d="M50.9 41.2c-1.5 0-2.8-1.2-2.8-2.8s1.2-2.8 2.8-2.8c1 0 1.8.4 2.3.9.2.2.5.2.7 0 .2-.2.2-.5 0-.7-.8-.8-1.7-1.2-3-1.2-2.1 0-3.8 1.7-3.8 3.8s1.7 3.8 3.8 3.8c1.5 0 2.6-.6 3.4-1.6l-.8-.6c-.6.7-1.4 1.2-2.6 1.2"/><path d="M81.5 41h-1.8v-7.5c0-1.1-.9-2-2-2h-1.5v1h1.5c.6 0 1 .4 1 1v7c0 .3-.2.5-.5.5h-1.5c-.3 0-.5.2-.5.5s.2.5.5.5h4.8c.3 0 .5-.2.5-.5s-.2-.5-.5-.5"/><path d="M62.8 41H61c.1-.2.1-.3.1-.5V37c0-1.1-.9-2-2-2h-1.5v1H59c.6 0 1 .4 1 1v3.5c0 .3-.2.5-.5.5H58c-.3 0-.5.2-.5.5s.2.5.5.5h4.7c.3 0 .5-.2.5-.5s-.2-.5-.4-.5"/><path d="M61.5 32c0-.6-.4-1-1-1s-1 .4-1 1 .4 1 1 1 1-.4 1-1"/><path d="M15.3 41h-1.8c.1-.2.1-.3.1-.5V37c0-1.1-.9-2-2-2H10v1h1.5c.6 0 1 .4 1 1v3.5c0 .3-.2.5-.5.5h-1.5c-.3 0-.5.2-.5.5s.2.5.5.5h4.7c.3 0 .5-.2.5-.5s-.2-.5-.4-.5"/><path d="M14 32c0-.6-.4-1-1-1s-1 .4-1 1 .4 1 1 1 1-.4 1-1"/><path d="M6 31.5H1c-.3 0-.5.2-.5.5v9.5c0 .3.2.5.5.5s.5-.2.5-.5V37h3.8c.3 0 .5-.2.5-.5s-.2-.5-.5-.5H1.5v-3.5H6c.2 0 .5-.2.5-.4 0-.3-.2-.6-.5-.6"/><path d="M67.3 26.5c.3 0 .5-.2.5-.5v-3.8c0-1 .8-2 2-2s2 .7 2 2v4.2h1v-4.2c0-1.8-1.2-3-2.8-3-.9 0-1.7.4-2.2 1v-.8h-1V26c0 .3.2.5.5.5"/><path d="M13 19.2c-.9 0-1.7.4-2.2 1v-3.8c0-.3-.2-.5-.5-.5s-.5.2-.5.5V26c0 .3.2.5.5.5s.5-.2.5-.5v-3.8c0-1 .8-2 2-2s2 .7 2 2v4.2h1v-4.2c0-1.7-1.3-3-2.8-3"/><path d="M41.6 25.8c-1.3 0-2.4-1.2-2.4-2.7 0-.8.3-1.5.7-2 .4-.5 1-.8 1.6-.8 1.5 0 2.4 1.3 2.4 2.8.1 1.4-.7 2.7-2.3 2.7m.2-6.5c-1 0-1.9.5-2.5 1.3v-1.1h-1v9c0 .3.2.5.5.5s.5-.2.5-.5v-3.1c.6.8 1.5 1.3 2.5 1.3 1.9 0 3.2-1.7 3.2-3.8s-1.4-3.6-3.2-3.6"/><path d="M50.6 25.9c-.9 0-1.9-.4-2.5-.8-.2-.1-.5-.1-.6.1-.1.2-.1.5.1.6.7.4 1.8.9 3 .9 1.9 0 3.4-.7 3.4-2.2s-1.5-1.8-3.3-2.1c-1.2-.2-2.2-.3-2.2-1 0-.8.9-1.2 2.2-1.2.8 0 1.5.2 2 .4.2.1.4 0 .5-.2.2-.2.1-.5-.2-.7-.6-.3-1.4-.5-2.4-.5-1.7 0-3.2.7-3.2 2.2 0 1.4 1.4 1.7 3.1 1.9 1.3.2 2.4.3 2.4 1.1.1.9-.6 1.5-2.3 1.5"/><path d="M33.8 19.5c-.8 0-1.4.4-1.7 1.1-.3-.7-.9-1.1-1.8-1.1-.7 0-1.2.3-1.5.7v-.5h-1V26c0 .3.2.5.5.5s.5-.2.5-.5v-4.5c0-.5.5-1 1.2-1 .8 0 1.2.4 1.2 1.2V26c0 .3.2.5.5.5s.5-.2.5-.5v-4.2c0-.8.5-1.2 1.2-1.2.8 0 1.2.4 1.2 1.2v4.8h1v-4.8c.2-1.4-.5-2.3-1.8-2.3"/><path d="M22.3 25.8c-.6 0-1.1-.2-1.6-.5l3.8-3.8c.3.4.5 1 .5 1.6 0 1.4-1.2 2.7-2.7 2.7m0-5.6c.6 0 1.1.2 1.6.5L20 24.6c-.3-.4-.5-1-.5-1.6 0-1.5 1.2-2.8 2.8-2.8m0-1c-2.1 0-3.8 1.7-3.8 3.8s1.7 3.8 3.8 3.8S26 25.1 26 23s-1.7-3.8-3.7-3.8"/><path d="M60.3 25.8c-.6 0-1.1-.2-1.6-.5l3.8-3.8c.3.4.5 1 .5 1.6 0 1.4-1.2 2.7-2.7 2.7m0-5.6c.6 0 1.1.2 1.6.5L58 24.6c-.3-.4-.5-1-.5-1.6 0-1.5 1.2-2.8 2.8-2.8m0-1c-2.1 0-3.8 1.7-3.8 3.8s1.7 3.8 3.8 3.8c2.1 0 3.8-1.7 3.8-3.8s-1.8-3.8-3.8-3.8"/><path d="M6 16H.5c-.3 0-.5.2-.5.5s.2.5.5.5h2.2v9c0 .3.2.5.5.5s.5-.2.5-.5v-9H6c.3 0 .5-.2.5-.5S6.3 16 6 16"/><path d="M3.6 10H1V5.8h2.6c1.2 0 2.1 1 2.1 2.1S4.8 10 3.6 10M1 1.5h2.4c.9 0 1.6.7 1.6 1.6s-.7 1.7-1.6 1.7H1V1.5zm3.8 3.7C5.5 4.8 6 4.1 6 3.1 6 1.6 4.8.5 3.4.5H.5C.2.5 0 .7 0 1v9.5c0 .3.2.5.5.5h3.2c1.7-.1 3-1.4 3-3.1.1-1.4-.8-2.3-1.9-2.7"/><path d="M38.8 11c.3 0 .5-.2.5-.5V6.8c0-1 .8-2 2-2s2 .7 2 2V11h1V6.8c0-1.8-1.2-3-2.8-3-.9 0-1.7.4-2.2 1V4h-1v6.5c0 .3.2.5.5.5"/><path d="M31.5 10.2c-1.5 0-2.2-.7-2.2-1.2s.7-1.2 2.2-1.2C33 7.8 34 8.2 34 9c0 .8-1 1.2-2.5 1.2m0-3.4c-1.9 0-3.2 1-3.2 2.2s1.3 2.2 3.2 2.2c1.1 0 1.9-.3 2.5-.8v.6h1V6.5c0-1.7-1.6-2.8-3.2-2.8-1.3 0-2.4.4-3 1-.2.2-.2.5 0 .7.2.2.4.2.6 0 .5-.5 1.2-.7 2.2-.7 1.4.1 2.4.8 2.4 1.8v1c-.6-.4-1.4-.7-2.5-.7"/><path d="M16 4.1c-.4-.2-.8-.3-1.3-.3-1 0-1.9.5-2.5 1.3-.3-.6-1-1.1-1.8-1.1h-1v1h1c.6 0 1 .4 1 1v3.5c0 .3-.2.5-.5.5h-1c-.2 0-.4.1-.5.3v.2c0 .3.2.5.5.5h5.5c.3 0 .5-.2.5-.5s-.2-.5-.5-.5h-3.1c.1-.2.1-.3.1-.5V6.7c0-1 .8-2 2-2 .4 0 .8.1 1 .2.3.2.6.1.7 0 .3-.3.2-.7-.1-.8"/><path d="M22.5 2c.6 0 1-.4 1-1s-.4-1-1-1-1 .4-1 1 .4 1 1 1"/><path d="M22 9.5c0 .3-.2.5-.5.5H20c-.3 0-.5.2-.5.5s.2.5.5.5h4.7c.3 0 .5-.2.5-.5s-.2-.5-.5-.5h-1.8c.1-.2.1-.3.1-.5V6c0-1.1-.9-2-2-2h-1.5v1H21c.6 0 1 .4 1 1v3.5z"/></symbol><symbol id="btf-logo" viewBox="0 0 100.2 52.5"><title>Brian Thompson Financial</title><path d="M5.5 21.9h13.1v3.5H5.5z"/><path d="M33.2 0h.5v52.5h-.5z"/><path d="M66.5 0h.5v52.5h-.5z"/><path d="M99.8 0h.5v52.5h-.5z"/><path d="M9.1 40.3V10.5h8.5V7H7.3c-1 0-1.8.8-1.8 1.8V42c0 1 .8 1.8 1.8 1.8h11.6v-3.5H9.1z"/><path d="M17.3 10.5c3.1 0 5.7 2.6 5.7 5.7s-2.6 5.7-5.7 5.7v2.6c5.1 0 9.2-3.2 9.2-8.3 0-5.1-4.1-9.2-9.2-9.2"/><path d="M50.1 43.8c-1 0-1.8-.8-1.8-1.8V7h3.5v35c.1 1-.7 1.8-1.7 1.8"/><path d="M18.2 25.4c4.1 0 7.4 3.3 7.4 7.4s-3.3 7.4-7.4 7.4v3.5c6 0 10.9-4.9 10.9-10.9s-4.9-10.1-10.9-10.1v2.7z"/><path d="M38.7 8.8c0-1 .8-1.8 1.8-1.8h19.3c1 0 1.8.8 1.8 1.8s-.8 1.8-1.8 1.8H40.5c-1-.1-1.8-.9-1.8-1.8"/><path d="M93 7l-17.5-.1c-1 0-1.8.8-1.8 1.8V42c0 1 .8 1.8 1.8 1.8s1.8-.8 1.8-1.8V10.5H93c.9 0 1.7-.6 1.8-1.5.1-1.1-.7-2-1.8-2"/><path d="M73.8 26.3v-3.5h16.6c1 0 1.8.8 1.8 1.8s-.8 1.8-1.8 1.8H73.8z"/><path d="M0 0h.5v52.5H0z"/></symbol><symbol id="icon-placeholder" viewBox="0 0 140 140"><title>Placeholder Icon</title><path fill="#E0E0E0" d="M0-.277h140V140H0z"/><g fill="none" stroke="#C2C2C2" stroke-width="1.956" stroke-miterlimit="10"><path d="M11.333 128.39L128.666 11.057"/><path d="M11.333 11.057L128.666 128.39"/></g></symbol></svg>