<svg xmlns="http://www.w3.org/2000/svg" xmlns:xlink="http://www.w3.org/1999/xlink"><defs><path id="SVGID_1_" d="M0 17.1h89.5V46H0z"/></defs><symbol id="arrowhead-left" viewBox="0 0 28.4 57"><path d="M1.4 25L24.7 1.5c.9-1 2.2-1.5 3.6-1.5h.2v57h-.2c-1.3 0-2.6-.5-3.6-1.5L1.4 32c-1.9-1.9-1.9-5.1 0-7z"/></symbol><symbol id="arrowhead-right" viewBox="0 0 28.4 57"><path d="M27 25L3.7 1.5C2.8.5 1.5 0 .2 0H0v57h.2c1.3 0 2.6-.5 3.6-1.5L27 32c1.9-1.9 1.9-5.1 0-7z"/></symbol><symbol id="btf-full-logo" viewBox="0 0 82 42.2"><path d="M22.5 34.8c-.9 0-1.7.4-2.2 1V35h-1v6.5c0 .3.2.5.5.5s.5-.2.5-.5v-3.8c0-1 .8-2 2-2s2 .7 2 2V42h1v-4.2c0-1.8-1.3-3-2.8-3"/><path d="M41.5 34.8c-.9 0-1.7.4-2.2 1V35h-1v6.5c0 .3.2.5.5.5s.5-.2.5-.5v-3.8c0-1 .8-2 2-2s2 .7 2 2V42h1v-4.2c0-1.8-1.3-3-2.8-3"/><path d="M31.5 41.2c-1.5 0-2.2-.7-2.2-1.2s.7-1.2 2.2-1.2c1.5 0 2.5.5 2.5 1.2 0 .8-1 1.2-2.5 1.2m.3-6.4c-1.3 0-2.4.4-3 1-.2.2-.2.5 0 .7.2.2.4.2.6 0 .5-.5 1.2-.7 2.2-.7 1.5 0 2.5.8 2.5 1.8v1c-.6-.5-1.4-.8-2.5-.8-1.9 0-3.2 1-3.2 2.2s1.3 2.2 3.2 2.2c1.1 0 1.9-.3 2.5-.8v.6h1v-4.5c-.1-1.7-1.7-2.7-3.3-2.7"/><path d="M69.5 41.2c-1.5 0-2.2-.7-2.2-1.2s.7-1.2 2.2-1.2c1.5 0 2.5.5 2.5 1.2 0 .8-1 1.2-2.5 1.2m.3-6.4c-1.3 0-2.4.4-3 1-.2.2-.2.5 0 .7.2.2.4.2.6 0 .5-.5 1.2-.7 2.2-.7 1.5 0 2.5.8 2.5 1.8v1c-.6-.5-1.4-.8-2.5-.8-1.9 0-3.2 1-3.2 2.2s1.3 2.2 3.2 2.2c1.1 0 1.9-.3 2.5-.8v.6h1v-4.5c-.1-1.7-1.7-2.7-3.3-2.7"/><path d="M50.9 41.2c-1.5 0-2.8-1.2-2.8-2.8s1.2-2.8 2.8-2.8c1 0 1.8.4 2.3.9.2.2.5.2.7 0 .2-.2.2-.5 0-.7-.8-.8-1.7-1.2-3-1.2-2.1 0-3.8 1.7-3.8 3.8s1.7 3.8 3.8 3.8c1.5 0 2.6-.6 3.4-1.6l-.8-.6c-.6.7-1.4 1.2-2.6 1.2"/><path d="M81.5 41h-1.8v-7.5c0-1.1-.9-2-2-2h-1.5v1h1.5c.6 0 1 .4 1 1v7c0 .3-.2.5-.5.5h-1.5c-.3 0-.5.2-.5.5s.2.5.5.5h4.8c.3 0 .5-.2.5-.5s-.2-.5-.5-.5"/><path d="M62.8 41H61c.1-.2.1-.3.1-.5V37c0-1.1-.9-2-2-2h-1.5v1H59c.6 0 1 .4 1 1v3.5c0 .3-.2.5-.5.5H58c-.3 0-.5.2-.5.5s.2.5.5.5h4.7c.3 0 .5-.2.5-.5s-.2-.5-.4-.5"/><path d="M61.5 32c0-.6-.4-1-1-1s-1 .4-1 1 .4 1 1 1 1-.4 1-1"/><path d="M15.3 41h-1.8c.1-.2.1-.3.1-.5V37c0-1.1-.9-2-2-2H10v1h1.5c.6 0 1 .4 1 1v3.5c0 .3-.2.5-.5.5h-1.5c-.3 0-.5.2-.5.5s.2.5.5.5h4.7c.3 0 .5-.2.5-.5s-.2-.5-.4-.5"/><path d="M14 32c0-.6-.4-1-1-1s-1 .4-1 1 .4 1 1 1 1-.4 1-1"/><path d="M6 31.5H1c-.3 0-.5.2-.5.5v9.5c0 .3.2.5.5.5s.5-.2.5-.5V37h3.8c.3 0 .5-.2.5-.5s-.2-.5-.5-.5H1.5v-3.5H6c.2 0 .5-.2.5-.4 0-.3-.2-.6-.5-.6"/><path d="M67.3 26.5c.3 0 .5-.2.5-.5v-3.8c0-1 .8-2 2-2s2 .7 2 2v4.2h1v-4.2c0-1.8-1.2-3-2.8-3-.9 0-1.7.4-2.2 1v-.8h-1V26c0 .3.2.5.5.5"/><path d="M13 19.2c-.9 0-1.7.4-2.2 1v-3.8c0-.3-.2-.5-.5-.5s-.5.2-.5.5V26c0 .3.2.5.5.5s.5-.2.5-.5v-3.8c0-1 .8-2 2-2s2 .7 2 2v4.2h1v-4.2c0-1.7-1.3-3-2.8-3"/><path d="M41.6 25.8c-1.3 0-2.4-1.2-2.4-2.7 0-.8.3-1.5.7-2 .4-.5 1-.8 1.6-.8 1.5 0 2.4 1.3 2.4 2.8.1 1.4-.7 2.7-2.3 2.7m.2-6.5c-1 0-1.9.5-2.5 1.3v-1.1h-1v9c0 .3.2.5.5.5s.5-.2.5-.5v-3.1c.6.8 1.5 1.3 2.5 1.3 1.9 0 3.2-1.7 3.2-3.8s-1.4-3.6-3.2-3.6"/><path d="M50.6 25.9c-.9 0-1.9-.4-2.5-.8-.2-.1-.5-.1-.6.1-.1.2-.1.5.1.6.7.4 1.8.9 3 .9 1.9 0 3.4-.7 3.4-2.2s-1.5-1.8-3.3-2.1c-1.2-.2-2.2-.3-2.2-1 0-.8.9-1.2 2.2-1.2.8 0 1.5.2 2 .4.2.1.4 0 .5-.2.2-.2.1-.5-.2-.7-.6-.3-1.4-.5-2.4-.5-1.7 0-3.2.7-3.2 2.2 0 1.4 1.4 1.7 3.1 1.9 1.3.2 2.4.3 2.4 1.1.1.9-.6 1.5-2.3 1.5"/><path d="M33.8 19.5c-.8 0-1.4.4-1.7 1.1-.3-.7-.9-1.1-1.8-1.1-.7 0-1.2.3-1.5.7v-.5h-1V26c0 .3.2.5.5.5s.5-.2.5-.5v-4.5c0-.5.5-1 1.2-1 .8 0 1.2.4 1.2 1.2V26c0 .3.2.5.5.5s.5-.2.5-.5v-4.2c0-.8.5-1.2 1.2-1.2.8 0 1.2.4 1.2 1.2v4.8h1v-4.8c.2-1.4-.5-2.3-1.8-2.3"/><path d="M22.3 25.8c-.6 0-1.1-.2-1.6-.5l3.8-3.8c.3.4.5 1 .5 1.6 0 1.4-1.2 2.7-2.7 2.7m0-5.6c.6 0 1.1.2 1.6.5L20 24.6c-.3-.4-.5-1-.5-1.6 0-1.5 1.2-2.8 2.8-2.8m0-1c-2.1 0-3.8 1.7-3.8 3.8s1.7 3.8 3.8 3.8S26 25.1 26 23s-1.7-3.8-3.7-3.8"/><path d="M60.3 25.8c-.6 0-1.1-.2-1.6-.5l3.8-3.8c.3.4.5 1 .5 1.6 0 1.4-1.2 2.7-2.7 2.7m0-5.6c.6 0 1.1.2 1.6.5L58 24.6c-.3-.4-.5-1-.5-1.6 0-1.5 1.2-2.8 2.8-2.8m0-1c-2.1 0-3.8 1.7-3.8 3.8s1.7 3.8 3.8 3.8c2.1 0 3.8-1.7 3.8-3.8s-1.8-3.8-3.8-3.8"/><path d="M6 16H.5c-.3 0-.5.2-.5.5s.2.5.5.5h2.2v9c0 .3.2.5.5.5s.5-.2.5-.5v-9H6c.3 0 .5-.2.5-.5S6.3 16 6 16"/><path d="M3.6 10H1V5.8h2.6c1.2 0 2.1 1 2.1 2.1S4.8 10 3.6 10M1 1.5h2.4c.9 0 1.6.7 1.6 1.6s-.7 1.7-1.6 1.7H1V1.5zm3.8 3.7C5.5 4.8 6 4.1 6 3.1 6 1.6 4.8.5 3.4.5H.5C.2.5 0 .7 0 1v9.5c0 .3.2.5.5.5h3.2c1.7-.1 3-1.4 3-3.1.1-1.4-.8-2.3-1.9-2.7"/><path d="M38.8 11c.3 0 .5-.2.5-.5V6.8c0-1 .8-2 2-2s2 .7 2 2V11h1V6.8c0-1.8-1.2-3-2.8-3-.9 0-1.7.4-2.2 1V4h-1v6.5c0 .3.2.5.5.5"/><path d="M31.5 10.2c-1.5 0-2.2-.7-2.2-1.2s.7-1.2 2.2-1.2C33 7.8 34 8.2 34 9c0 .8-1 1.2-2.5 1.2m0-3.4c-1.9 0-3.2 1-3.2 2.2s1.3 2.2 3.2 2.2c1.1 0 1.9-.3 2.5-.8v.6h1V6.5c0-1.7-1.6-2.8-3.2-2.8-1.3 0-2.4.4-3 1-.2.2-.2.5 0 .7.2.2.4.2.6 0 .5-.5 1.2-.7 2.2-.7 1.4.1 2.4.8 2.4 1.8v1c-.6-.4-1.4-.7-2.5-.7"/><path d="M16 4.1c-.4-.2-.8-.3-1.3-.3-1 0-1.9.5-2.5 1.3-.3-.6-1-1.1-1.8-1.1h-1v1h1c.6 0 1 .4 1 1v3.5c0 .3-.2.5-.5.5h-1c-.2 0-.4.1-.5.3v.2c0 .3.2.5.5.5h5.5c.3 0 .5-.2.5-.5s-.2-.5-.5-.5h-3.1c.1-.2.1-.3.1-.5V6.7c0-1 .8-2 2-2 .4 0 .8.1 1 .2.3.2.6.1.7 0 .3-.3.2-.7-.1-.8"/><path d="M22.5 2c.6 0 1-.4 1-1s-.4-1-1-1-1 .4-1 1 .4 1 1 1"/><path d="M22 9.5c0 .3-.2.5-.5.5H20c-.3 0-.5.2-.5.5s.2.5.5.5h4.7c.3 0 .5-.2.5-.5s-.2-.5-.5-.5h-1.8c.1-.2.1-.3.1-.5V6c0-1.1-.9-2-2-2h-1.5v1H21c.6 0 1 .4 1 1v3.5z"/></symbol><symbol id="btf-logo" viewBox="0 0 100.2 52.5"><title>Brian Thompson Financial</title><path d="M5.5 21.9h13.1v3.5H5.5z"/><path d="M33.2 0h.5v52.5h-.5z"/><path d="M66.5 0h.5v52.5h-.5z"/><path d="M99.8 0h.5v52.5h-.5z"/><path d="M9.1 40.3V10.5h8.5V7H7.3c-1 0-1.8.8-1.8 1.8V42c0 1 .8 1.8 1.8 1.8h11.6v-3.5H9.1z"/><path d="M17.3 10.5c3.1 0 5.7 2.6 5.7 5.7s-2.6 5.7-5.7 5.7v2.6c5.1 0 9.2-3.2 9.2-8.3 0-5.1-4.1-9.2-9.2-9.2"/><path d="M50.1 43.8c-1 0-1.8-.8-1.8-1.8V7h3.5v35c.1 1-.7 1.8-1.7 1.8"/><path d="M18.2 25.4c4.1 0 7.4 3.3 7.4 7.4s-3.3 7.4-7.4 7.4v3.5c6 0 10.9-4.9 10.9-10.9s-4.9-10.1-10.9-10.1v2.7z"/><path d="M38.7 8.8c0-1 .8-1.8 1.8-1.8h19.3c1 0 1.8.8 1.8 1.8s-.8 1.8-1.8 1.8H40.5c-1-.1-1.8-.9-1.8-1.8"/><path d="M93 7l-17.5-.1c-1 0-1.8.8-1.8 1.8V42c0 1 .8 1.8 1.8 1.8s1.8-.8 1.8-1.8V10.5H93c.9 0 1.7-.6 1.8-1.5.1-1.1-.7-2-1.8-2"/><path d="M73.8 26.3v-3.5h16.6c1 0 1.8.8 1.8 1.8s-.8 1.8-1.8 1.8H73.8z"/><path d="M0 0h.5v52.5H0z"/></symbol><symbol id="btt-logo" viewBox="-510 740.3 100.4 52.7"><title>Brian Thompson Taxes</title><path d="M-491.8 780.7h-9.2v-14.9h9.2c4.1 0 7.5 3.4 7.5 7.5s-3.4 7.4-7.5 7.4m-9.2-29.9h8.3c3.1 0 5.7 2.6 5.7 5.7s-2.6 5.7-5.7 5.7h-8.3v-11.4zm13.2 13c2.6-1.4 4.4-3.9 4.4-7.2 0-5.1-4.1-9.2-9.2-9.2h-10.1c-1 0-1.8.8-1.8 1.8v33.3c0 1 .8 1.8 1.8 1.8h11.4c5.9-.2 10.5-5 10.5-11 0-4.7-2.9-8.2-7-9.5"/><path d="M-450.1 747.3h-19.3c-1 0-1.8.8-1.8 1.8s.8 1.8 1.8 1.8h7.9v31.6c0 1 .8 1.8 1.8 1.8s1.8-.8 1.8-1.8v-31.6h7.9c1 0 1.8-.8 1.8-1.8-.2-1-1-1.8-1.9-1.8"/><path d="M-416.8 747.3h-19.3c-1 0-1.8.8-1.8 1.8s.8 1.8 1.8 1.8h7.9v31.6c0 1 .8 1.8 1.8 1.8s1.8-.8 1.8-1.8v-31.6h7.9c1 0 1.8-.8 1.8-1.8-.1-1-.9-1.8-1.9-1.8"/><path d="M-409.6 793h-.4v-52.7h.4V793zm-33.3 0h-.4v-52.7h.4V793zm-33.3 0h-.4v-52.7h.4V793zm-33.4 0h-.4v-52.7h.4V793z"/></symbol><symbol id="e-betterment" viewBox="0 0 91.2 46"><style>.st0{fill:#231f20}</style><path class="st0" d="M43.4 15.8c0 .2 0 .3.1.5.2.9 1.1 1.5 2 1.3.6-.1 1-.4 1.3-.9 1.5-2.3 3-4.5 4.4-6.8.9-1.4 1.9-2.9 2.8-4.3.2-.2.2-.4 0-.6-.2-.2-.5-.1-.7.1L51 7.4c-1.5 1.5-3 3-4.5 4.6l-2.6 2.6c-.3.3-.5.7-.5 1.2m20.2 1.8c0 1.8-.1 3.3-.6 4.7-.4 1.3-1.3 2.2-2.6 2.5-.7.2-1.5.1-2.2-.2l-9.3-3.9c-.7-.3-1.5-.4-2.3-.5-.8-.1-1.5-.1-2.3 0-.9.1-1.7.3-2.6.7-2.9 1.2-5.9 2.5-8.8 3.7-1.9.8-4.1-.3-4.7-2.3-.3-.9-.4-1.9-.5-2.9-.1-.9-.1-1.8 0-2.6.1-1.6.4-3.2 1-4.7.9-2.6 2.4-4.9 4.4-6.9C35 3.3 37.2 1.9 39.7 1 40.8.6 41.9.3 43 .2c1.2-.2 2.4-.2 3.6-.2 3.2.2 6.2 1.1 8.9 2.9 2.6 1.7 4.6 4 6.1 6.7.8 1.6 1.4 3.3 1.7 5 .2 1.2.3 2.2.3 3"/><path class="st0" d="M1.7 35.3v2c0 .2 0 .2.2.2h3.6c.4 0 .9 0 1.3-.2.6-.2 1.1-.5 1.4-1.1.2-.4.2-.9.2-1.3-.1-.7-.4-1.2-1-1.6-.5-.2-1-.3-1.5-.3h-4c-.1 0-.1.1-.1.2-.1.7-.1 1.4-.1 2.1m.1 3.7v5.2c0 .2.1.2.2.2h3.7c.6 0 1.2-.1 1.7-.2.7-.2 1.3-.7 1.5-1.5.1-.4.1-.8.1-1.3-.1-.7-.4-1.3-1-1.7-.6-.5-1.4-.6-2.2-.6H1.9l-.1-.1M0 46V31.6h5.8c.9 0 1.7.1 2.5.5 1 .5 1.6 1.2 1.8 2.3.1.6.1 1.2-.1 1.8-.3.9-.9 1.5-1.7 1.9-.1 0-.2.1-.4.1.1 0 .2.1.3.1 1 .3 1.8.9 2.3 2 .3.7.3 1.4.3 2.1-.1.5-.2 1-.4 1.5-.4.9-1.1 1.4-2 1.7-.7.2-1.5.4-2.2.4H0"/><path class="st0" d="M51.2 45.7V35.6h1.6v1.3c.7-1.2 1.7-1.6 3-1.6 1.3.1 2.2.7 2.6 2 .2-.3.3-.5.5-.8.5-.6 1.1-1 1.9-1.2.7-.1 1.3-.1 2 .1.8.3 1.3.9 1.6 1.7.2.6.3 1.2.3 1.8v6.8h-1.5c-.1 0-.2 0-.2-.2v-5.7c0-.6 0-1.2-.2-1.8-.2-.8-.8-1.2-1.6-1.2-.6 0-1.1.1-1.5.5-.4.4-.6.8-.8 1.4-.2.6-.2 1.2-.2 1.8v5.3h-1.4c-.2 0-.2 0-.2-.2v-5.8c0-.6 0-1.1-.2-1.6-.2-.6-.5-1.1-1.2-1.2-1.1-.2-2.1.1-2.6 1.3-.2.6-.3 1.2-.4 1.9v5.7c0 .1 0 .1-.1.1-.4-.3-.9-.3-1.4-.3"/><path class="st0" d="M13.6 39.7h5.5v-.2c-.1-.4-.2-.9-.3-1.3-.8-1.9-3-1.9-4-1.1-.8.8-1.1 1.6-1.2 2.6m-.1 1.3c0 .9.2 1.8.7 2.5.3.5.7.8 1.3.9.4.1.8.2 1.3.1.7-.1 1.3-.3 1.8-.7l.6-.6.2-.2c.4.3.7.6 1.1.9-.2.3-.4.5-.7.7-.8.8-1.8 1.2-2.9 1.3-.8.1-1.6 0-2.4-.3-1.1-.5-1.8-1.3-2.2-2.3-.4-1-.6-2.1-.5-3.3 0-.7.2-1.4.5-2 .5-1.2 1.4-2.1 2.7-2.5 1.3-.4 2.6-.3 3.8.5.9.6 1.4 1.4 1.7 2.4.2.7.3 1.4.3 2.2 0 .4 0 .4-.4.4h-6.9z"/><path class="st0" d="M41.4 39.7c0-.5-.1-.9-.3-1.3-.7-1.9-2.8-2-3.9-1.3-.7.4-1 1.1-1.2 1.8-.1.3-.1.5-.2.8h5.6zm.3 3.4c.4.3.7.6 1.1.8-.2.3-.5.6-.7.8-.8.7-1.7 1.1-2.8 1.2-.8.1-1.6 0-2.4-.3-1.1-.5-1.8-1.3-2.2-2.3-.3-.7-.5-1.5-.5-2.3 0-1 0-1.9.4-2.8.5-1.3 1.4-2.3 2.7-2.7 1.5-.5 2.9-.3 4.2.7.7.6 1.1 1.3 1.4 2.2.2.7.3 1.5.3 2.3v.2c-.2.1-.2.1-.3.1H36l-.1.1c0 .9.2 1.7.7 2.4.5.7 1.1 1 1.9 1.1 1.3.1 2.3-.3 3.1-1.3 0-.1 0-.2.1-.2"/><path class="st0" d="M67.9 39.7h5.6c0-.4-.1-.8-.3-1.2-.7-2-2.8-2.1-3.9-1.4-1 .6-1.3 1.6-1.4 2.6m0 1.3c0 .9.2 1.8.8 2.5.5.7 1.2 1 2 1.1 1 .1 1.9-.2 2.6-.9.2-.2.4-.4.5-.6.4.3.7.5 1.1.8-.2.4-.5.7-.9.9-.9.8-2 1.1-3.1 1.1-.9 0-1.7-.2-2.4-.6-1-.6-1.6-1.4-1.9-2.5-.5-1.6-.5-3.2.1-4.8.5-1.4 1.5-2.3 3-2.6 1.3-.3 2.6-.1 3.8.8.7.5 1.1 1.3 1.4 2.1.3.8.4 1.6.3 2.4v.1c0 .1-.1.2-.2.2h-7.1z"/><path class="st0" d="M84.6 45.7h-1.5c-.1 0-.1 0-.1-.1V40c0-.6 0-1.2-.2-1.8-.3-1-.9-1.5-1.9-1.5-.3 0-.7 0-1 .1-.7.2-1.1.6-1.4 1.3-.2.6-.3 1.2-.3 1.9v5.5c0 .2 0 .2-.2.2h-1.4V35.5h1.6v1.3c.2-.2.3-.4.5-.6.6-.6 1.4-.9 2.2-.9.6 0 1.2 0 1.8.3.8.3 1.3.9 1.6 1.6.3.8.4 1.6.4 2.4v6c-.1 0-.1.1-.1.1"/><path class="st0" d="M91.2 35.5v1.3h-2.1c-.2 0-.2 0-.2.2v6.4c0 .2 0 .4.1.6.1.3.3.4.6.5.5.1 1-.1 1.4-.3.1 0 .1-.1.2-.1v1.4s0 .1-.1.1c-.8.4-1.7.5-2.6.3-.6-.2-1-.6-1.1-1.2-.1-.4-.1-.7-.1-1.1v-6.5c0-.2 0-.2-.2-.2h-1.4v-1.3h1.4c.1 0 .2 0 .2-.2v-3.8h1.6v3.8c0 .2 0 .2.2.2H91c.1-.1.1-.1.2-.1"/><path class="st0" d="M22.9 31.5h1.6v3.8c0 .2 0 .2.2.2h2.1v1.3h-2.1c-.2 0-.2 0-.2.2v6.3c0 .2 0 .5.1.7.1.3.3.5.6.5.4.1.8-.1 1.2-.2.1-.1.2-.1.4-.2v1.3c0 .1 0 .1-.1.2-.8.4-1.7.5-2.5.3-.7-.2-1-.6-1.1-1.3-.1-.4-.1-.9-.1-1.3v-6.2c0-.2 0-.2-.2-.2h-1.3c-.1 0-.2 0-.2-.2v-.9c0-.2 0-.2.2-.2h1.2c.2 0 .2 0 .2-.2v-3.9z"/><path class="st0" d="M33.4 44.1v1.4l-.1.1c-.3.2-.7.3-1.1.3-.5.1-.9.1-1.4 0-.7-.2-1.1-.7-1.2-1.4-.1-.4-.1-.7-.1-1.1V37c0-.1 0-.2-.2-.2H28c-.2 0-.2 0-.2-.2v-1h1.4c.2 0 .2 0 .2-.2v-3.8H31v3.8c0 .2 0 .2.2.2h2.1v1.3h-2.1c-.2 0-.2 0-.2.2v6.4c0 .2 0 .4.1.6.1.3.3.5.6.5.4 0 .8-.1 1.1-.2.3-.2.5-.3.6-.3"/><path class="st0" d="M44.6 45.7V35.5H46c.1 0 .2 0 .2.2v1.2c.4-.7 1-1.2 1.8-1.4.8-.2 1.5-.2 2.3.1-.2.4-.4.9-.6 1.3 0 .1-.1.1-.2.1-.3 0-.5-.1-.8-.1-1 0-1.6.5-2.1 1.3-.3.6-.4 1.2-.5 1.8v5.6c0 .3 0 .2-.2.2h-1.3z"/></symbol><symbol id="e-money" viewBox="0 0 91.2 46"><style>.st0{fill:#231f20}</style><clipPath id="SVGID_2_"><use xlink:href="#SVGID_1_" overflow="visible"/></clipPath><path class="st0" d="M.8 37H74v.5H.8z"/><path class="st0" d="M51.6 41.8c-.1-.7-.1-1.3-.2-2-.4.6-.7 1.3-1.1 2h1.3zm.7-3c.2 1.6.4 3.2.7 4.8h-1.1c0-.3-.1-.7-.1-1h-1.9c-.1.1-.2.3-.3.4-.1.2-.2.3-.3.5l-.1.1h-.9c0-.1.1-.1.1-.2.9-1.5 1.7-3 2.6-4.5.1-.1.1-.1.2-.1h1.1"/><path class="st0" d="M54.5 42.4v.2c0 .4.3.6.7.5.2-.1.4-.2.5-.4.2-.4.4-.8.3-1.2 0-.3-.2-.5-.6-.5-.2 0-.4.1-.6.3-.2.2-.3.6-.3 1.1m1.7-1.8c.1-.6.3-1.2.4-1.8h1c-.3 1.6-.7 3.2-1 4.8h-1c0-.1 0-.3.1-.4-.1.1-.2.2-.3.2-.4.3-.9.3-1.3.2-.4-.1-.6-.5-.6-.9-.1-.8.4-1.9 1.1-2.3.3-.2.6-.2 1-.2.2 0 .4.1.6.4"/><path class="st0" d="M68 43c.3 0 .5-.1.7-.3.3-.4.4-.9.4-1.3 0-.3-.1-.5-.4-.5-.3-.1-.7.1-.9.4-.2.4-.3.7-.3 1.1 0 .4.2.6.5.6m.7-2.9c.2 0 .5.1.7.1.5.2.7.6.7 1.1 0 .8-.3 1.5-.9 1.9-.5.4-1.1.5-1.8.3-.5-.1-.8-.5-.9-1-.1-.8.3-1.9 1.2-2.3.3 0 .6-.1 1-.1"/><path class="st0" d="M66.1 41.1h-.9c0-.2 0-.3-.2-.4-.2 0-.4 0-.6.2-.1.2-.1.3.1.4.2.1.5.1.7.2.1 0 .2.1.3.1.4.2.6.5.4 1-.2.5-.6.8-1.1 1-.4.1-.8.1-1.2 0-.5-.2-.7-.5-.6-1h.9v.1c.1.1.1.2.2.3.2.1.6.1.7-.1.2-.2.2-.4-.1-.5-.2-.1-.4-.1-.6-.2h-.2c-.7-.2-.9-.9-.4-1.5.3-.4.7-.5 1.2-.5.3 0 .5 0 .8.1.5 0 .7.4.6.8"/><path class="st0" d="M61.3 40.2c0 .1-.1.1-.1.2-.6 1-1.2 2.1-1.8 3.1-.1.1-.1.1-.2.1h-1c-.2-1.1-.3-2.2-.5-3.4h1l.1.1c.1.6.2 1.3.2 2v.2c.2-.4.4-.8.6-1.1.2-.3.4-.7.5-1 0-.1.1-.1.2-.1.4-.1.7-.1 1-.1"/><path class="st0" d="M73.2 40.2c-.1.3-.1.6-.2.9h-.4c-.4 0-.7.2-.8.6-.1.5-.2 1.1-.4 1.6-.1.3-.1.3-.3.3h-.7c.2-1.1.5-2.3.7-3.4h.9c0 .2-.1.3-.1.5.3-.4.7-.5 1.3-.5"/><path class="st0" d="M62.1 43.6h-1c.1-.5.2-.9.3-1.4.1-.6.3-1.3.4-1.9 0-.1 0-.1.2-.1h.9c-.3 1.1-.5 2.3-.8 3.4"/><path class="st0" d="M61.9 39.6c.1-.3.1-.6.2-.9h1.1c-.1.3-.1.5-.2.8l-.1.1h-1"/><path class="st0" d="M3.2 28h.1c1.2-.4 2.3-.8 3.4-1.4 1.1-.6 2.1-1.3 2.9-2.3 1-1.1 1.5-2.4 1.4-3.9 0-.2-.1-.5-.2-.7-.1-.3-.4-.4-.7-.4-.6 0-1.1.2-1.6.5-.9.5-1.6 1.2-2.2 2-.9 1.2-1.7 2.6-2.3 4-.3.7-.5 1.4-.8 2.2m34.2-10.9c-.3 1.4-.6 2.9-.9 4.3-.4 1.7-.7 3.3-1.1 5-.4 2.1-.9 4.1-1.3 6.2-.2 1-.4 1.9-.6 2.9h-3.9l3.3-15.6c-.1.2-.2.3-.3.5-2.6 4.9-5.2 9.8-7.8 14.6-.1.2-.2.4-.3.5-.2.1-.4 0-.6 0h-2.7l-1.5-15.6-3.3 15.6h-3.7c.2-1.1.5-2.3.7-3.4-.3.3-.6.5-.8.8-1.4 1.2-2.9 2.2-4.8 2.6-1.2.3-2.5.4-3.8.1-.9-.2-1.8-.6-2.6-1.3-.7-.7-1.1-1.5-1.3-2.4 0-.2-.1-.4-.1-.6v-1.4l.3-1.8c.8-3 2.4-5.5 4.7-7.4 1.1-.9 2.3-1.6 3.7-1.9.9-.2 1.9-.3 2.8.1.6.2 1 .6 1.2 1.2.2.8.1 1.6-.1 2.3-.3 1.2-1.1 2.1-2 2.9-1 .8-2.1 1.5-3.2 2-1.4.6-2.9 1.1-4.4 1.5-.1 0-.1.1-.1.1-.3 1-.5 2.1-.5 3.2 0 .7.2 1.4.6 2 .3.5.8.9 1.4 1 .6.1 1.2.1 1.8 0 1.2-.2 2.4-.6 3.4-1.2 1.6-.9 2.9-2.1 4-3.5 0 0 .1-.1.1-.2.3-1.3.6-2.7.9-4 .4-1.7.7-3.4 1.1-5.2.3-1.3.6-2.6.8-3.9H23c0 .3 0 .6.1.9.1.7.1 1.5.2 2.2.1.7.1 1.5.2 2.2.1.7.1 1.5.2 2.2.1.9.1 1.8.2 2.6.1.9.1 1.8.2 2.6v.6c.1 0 .1-.1.1-.1.3-.5.6-1 .8-1.6 2-3.8 4-7.7 6.1-11.5v-.1h6.3z"/><path class="st0" d="M72.7 46c.4-.7.7-1.3 1-2 1.4-2.8 2.9-5.5 4.3-8.3 0-.1.1-.2 0-.2-.2-1.1-.4-2.3-.6-3.4-.2-1.2-.4-2.4-.6-3.7-.2-1.1-.4-2.3-.6-3.4-.1-.8-.3-1.5-.4-2.3H80c.3 2.9.6 5.9.9 8.9.1-.1.1-.1.1-.2 1.5-2.9 3.1-5.7 4.6-8.6.1-.1.1-.1.2-.1h3.6c0 .1-.1.1-.1.2-2.5 4.1-5 8.3-7.4 12.4-.3.5-.6 1.1-.9 1.7l-4.5 9-.1.1c-1.2-.1-2.4-.1-3.7-.1"/><path class="st0" d="M60.7 35.6h-3.9l.3-1.2c.4-1.9.8-3.7 1.2-5.6.1-.6.3-1.2.4-1.8.2-1.2-.6-2-1.8-1.9-1.4.1-2.2.9-2.6 2.2-.2.7-.4 1.4-.5 2.2-.4 1.9-.8 3.7-1.2 5.6 0 .2-.1.3-.1.5h-3.8c.9-4.3 1.9-8.6 2.7-12.9H55c-.1.6-.2 1.2-.3 1.9.1-.1.2-.3.3-.4 1-1 2.2-1.7 3.6-1.8.8-.1 1.6-.1 2.3.2 1.1.4 1.7 1.3 1.8 2.5.1.7 0 1.3-.2 2-.5 2.7-1.1 5.6-1.8 8.5.1-.1.1-.1 0 0"/><path class="st0" d="M71.9 27.4c.1-.6.2-1.2 0-1.7-.2-.6-.5-.9-1.1-1.1-.7-.1-1.4 0-2 .4-.7.5-1.1 1.2-1.4 2 0 .1-.1.2-.1.4h4.6zm2.6 4.1c-.2.8-.6 1.5-1.1 2.1-.8 1-1.8 1.6-3 1.9-1.4.4-2.9.5-4.3.1-.7-.2-1.4-.4-2-.9-.7-.6-1-1.4-1.2-2.3-.2-1.2 0-2.3.2-3.4.3-1.3.8-2.5 1.5-3.6 1.2-1.8 2.9-2.8 5-3.2 1-.2 2-.1 3 .2 1.5.5 2.4 1.5 2.8 3.1.2 1 .2 2 0 2.9-.1.5-.2 1.1-.3 1.6h-8.7c-.1.7-.3 1.4-.1 2.1.2.7.6 1.1 1.4 1.3.7.1 1.5.1 2.1-.4.5-.3.8-.7 1-1.2.1-.1.1-.2.2-.1h3.5z"/><path class="st0" d="M45.5 26.9c0-.2 0-.4-.1-.7-.1-.8-.6-1.4-1.4-1.6-.7-.2-1.3-.1-1.9.2-.7.3-1.2.9-1.6 1.6-.4.8-.7 1.7-.9 2.6-.2.8-.3 1.6-.2 2.4.1.5.3 1 .7 1.3.3.2.7.3 1.1.4 1.1.1 2-.2 2.7-1.1.5-.6.8-1.2 1-1.9.4-1 .6-2 .6-3.2m-1.6-4.8c1 0 1.9.2 2.8.5 1.4.6 2.3 1.7 2.5 3.2.3 1.6 0 3.1-.5 4.5-.7 1.7-1.7 3.1-3.3 4.1-1 .7-2.2 1.1-3.4 1.2-1 .1-2 .1-3-.2-1.2-.3-2.2-1-2.9-2.1-.4-.6-.6-1.3-.6-2-.1-2.5.6-4.7 2.2-6.6 1.2-1.4 2.7-2.3 4.6-2.6.5.1 1.1 0 1.6 0"/></symbol><symbol id="email" viewBox="0 0 13.7 9.1"><path d="M12.5 9.1H1.1C.5 9.1 0 8.6 0 7.9V1.1C0 .5.5 0 1.1 0h11.4c.6 0 1.1.5 1.1 1.1v6.8c.1.7-.4 1.2-1.1 1.2zM1 1.5v6.4c0 .1.1.2.1.2h11.4c.1 0 .1-.1.1-.1V1.5L7.5 5.4c-.4.3-1 .3-1.4 0L1 1.5zM2 1l4.8 3.6H7L11.7 1H2z"/></symbol><symbol id="facebook" viewBox="0 0 6 11.5"><path d="M5.6 6.2l.3-2h-2V2.9c0-.6.2-1 1-1H6V.1C5.8.1 5.1 0 4.4 0 2.8 0 1.8 1 1.8 2.7v1.5H0v2h1.8v5.2h2.1V6.2h1.7z"/></symbol><symbol id="footer-hole" viewBox="0 0 25 25"><path d="M12.5 13C5.6 13 0 7.4 0 .5V26h25V.5C25 7.4 19.4 13 12.5 13z"/><path d="M25 .2v.2-.2z"/></symbol><symbol id="hamburger" viewBox="0 0 20 17.5"><path d="M18.8 2.5H1.2C.6 2.5 0 1.9 0 1.2 0 .6.6 0 1.2 0h17.5c.7 0 1.3.6 1.3 1.2 0 .7-.6 1.3-1.2 1.3"/><path d="M18.8 10H1.2C.6 10 0 9.4 0 8.8c0-.7.6-1.2 1.2-1.2h17.5c.7 0 1.2.6 1.2 1.2.1.6-.5 1.2-1.1 1.2"/><path d="M18.8 17.5H1.2c-.7 0-1.2-.6-1.2-1.2S.6 15 1.2 15h17.5c.7 0 1.2.6 1.2 1.2s-.5 1.3-1.1 1.3"/></symbol><symbol id="icon-minus" viewBox="0 0 8 2"><path d="M.1 2C0 2 0 2 .1 2L0 .1C0 0 0 0 .1 0h7.8C8 0 8 0 8 .1v1.8C8 2 8 2 7.9 2H.1z"/></symbol><symbol id="icon-placeholder" viewBox="0 0 140 140"><title>Placeholder Icon</title><path fill="#E0E0E0" d="M0-.277h140V140H0z"/><g fill="none" stroke="#C2C2C2" stroke-width="1.956" stroke-miterlimit="10"><path d="M11.333 128.39L128.666 11.057"/><path d="M11.333 11.057L128.666 128.39"/></g></symbol><symbol id="icon-plus" viewBox="0 0 9 9"><path d="M3.4 3.5c.1 0 .1 0 0 0L3.5 0h1.9c.1 0 .1 0 .1.1v3.4c0 .1 0 .1.1.1h3.3c.1-.1.1 0 .1 0v1.8c0 .1 0 .1-.1.1H5.6c-.1 0-.1 0-.1.1v3.3c0 .1-.1.1-.1.1H3.6s-.1 0-.1-.1V5.6c0-.1 0-.1-.1-.1H.1c-.1 0-.1 0-.1-.1V3.6c0-.1 0-.1.1-.1h3.3z"/></symbol><symbol id="icon-search" viewBox="0 0 21 21"><path d="M12.7 13.5l.8-.8 7.5 7.5-.8.8-7.5-7.5z"/><path d="M8.1 16.1c-4.5 0-8.1-3.6-8.1-8C0 3.6 3.6 0 8.1 0s8.1 3.6 8.1 8.1c-.1 4.4-3.7 8-8.1 8zM8.1 1C4.1 1 1 4.1 1 8.1c0 3.9 3.2 7.1 7.1 7.1s7.1-3.2 7.1-7.1c0-4-3.2-7.1-7.1-7.1z"/></symbol><symbol id="twitter" viewBox="0 0 13.4 10.9"><path d="M13.4 1.3c-.5.2-1 .4-1.6.4.6-.3 1-.9 1.2-1.5-.5.3-1.1.5-1.7.7-.5-.6-1.2-.9-2-.9-1.6 0-2.8 1.2-2.8 2.7 0 .2 0 .4.1.6C4.3 3.3 2.3 2.2.9.5.7.9.6 1.4.6 1.9c0 1 .5 1.8 1.2 2.3-.5 0-.9-.2-1.3-.4 0 1.3.9 2.4 2.2 2.7-.2.1-.4.1-.7.1h-.5c.3 1.1 1.4 1.9 2.6 1.9-1 .7-2.2 1.2-3.4 1.2H0c1.2.8 2.7 1.2 4.2 1.2 5.1 0 7.8-4.2 7.8-7.8v-.4c.5-.4 1-.9 1.4-1.4"/></symbol></svg>