<svg xmlns="http://www.w3.org/2000/svg"><symbol id="btf-logo" viewBox="0 0 100.2 52.5"><title>Brian Thompson Financial</title><path d="M5.5 21.9h13.1v3.5H5.5z"/><path d="M33.2 0h.5v52.5h-.5z"/><path d="M66.5 0h.5v52.5h-.5z"/><path d="M99.8 0h.5v52.5h-.5z"/><path d="M9.1 40.3V10.5h8.5V7H7.3c-1 0-1.8.8-1.8 1.8V42c0 1 .8 1.8 1.8 1.8h11.6v-3.5H9.1z"/><path d="M17.3 10.5c3.1 0 5.7 2.6 5.7 5.7s-2.6 5.7-5.7 5.7v2.6c5.1 0 9.2-3.2 9.2-8.3 0-5.1-4.1-9.2-9.2-9.2"/><path d="M50.1 43.8c-1 0-1.8-.8-1.8-1.8V7h3.5v35c.1 1-.7 1.8-1.7 1.8"/><path d="M18.2 25.4c4.1 0 7.4 3.3 7.4 7.4s-3.3 7.4-7.4 7.4v3.5c6 0 10.9-4.9 10.9-10.9s-4.9-10.1-10.9-10.1v2.7z"/><path d="M38.7 8.8c0-1 .8-1.8 1.8-1.8h19.3c1 0 1.8.8 1.8 1.8s-.8 1.8-1.8 1.8H40.5c-1-.1-1.8-.9-1.8-1.8"/><path d="M93 7l-17.5-.1c-1 0-1.8.8-1.8 1.8V42c0 1 .8 1.8 1.8 1.8s1.8-.8 1.8-1.8V10.5H93c.9 0 1.7-.6 1.8-1.5.1-1.1-.7-2-1.8-2"/><path d="M73.8 26.3v-3.5h16.6c1 0 1.8.8 1.8 1.8s-.8 1.8-1.8 1.8H73.8z"/><path d="M0 0h.5v52.5H0z"/></symbol><symbol id="icon-placeholder" viewBox="0 0 140 140"><title>Placeholder Icon</title><path fill="#E0E0E0" d="M0-.277h140V140H0z"/><g fill="none" stroke="#C2C2C2" stroke-width="1.956" stroke-miterlimit="10"><path d="M11.333 128.39L128.666 11.057"/><path d="M11.333 11.057L128.666 128.39"/></g></symbol></svg>