<svg id="Layer_1" xmlns="http://www.w3.org/2000/svg" viewBox="-255 370 100.4 52.7"><title>Brian Thompson Financial</title><path fill="#1F1F1F" d="M-236.8 410.4h-9.2v-14.9h9.2c4.1 0 7.5 3.4 7.5 7.5s-3.4 7.4-7.5 7.4m-9.2-29.9h8.3c3.1 0 5.7 2.6 5.7 5.7s-2.6 5.7-5.7 5.7h-8.3v-11.4zm13.2 13c2.6-1.4 4.4-3.9 4.4-7.2 0-5.1-4.1-9.2-9.2-9.2h-10.1c-1 0-1.8.8-1.8 1.8v33.3c0 1 .8 1.8 1.8 1.8h11.4c5.9-.2 10.5-5 10.5-11 0-4.7-2.9-8.2-7-9.5"/><path fill="#1F1F1F" d="M-195.1 377h-19.3c-1 0-1.8.8-1.8 1.8s.8 1.8 1.8 1.8h7.9v31.6c0 1 .8 1.8 1.8 1.8s1.8-.8 1.8-1.8v-31.6h7.9c1 0 1.8-.8 1.8-1.8-.2-1-1-1.8-1.9-1.8"/><path fill="#1F1F1F" d="M-161.8 377h-19.3c-1 0-1.8.8-1.8 1.8s.8 1.8 1.8 1.8h7.9v31.6c0 1 .8 1.8 1.8 1.8s1.8-.8 1.8-1.8v-31.6h7.9c1 0 1.8-.8 1.8-1.8-.1-1-.9-1.8-1.9-1.8"/><path fill="none" stroke="#1F1F1F" stroke-width=".439" stroke-miterlimit="10" d="M-154.8 370v52.7m-33.3-52.7v52.7m-33.3-52.7v52.7m-33.4-52.7v52.7"/><path fill="none" d="M-255 370h100.4v52.7H-255z"/></svg>