<svg id="Layer_1" xmlns="http://www.w3.org/2000/svg" viewBox="-510 740.3 100.4 52.7"><title>Brian Thompson Taxes</title><path d="M-491.8 780.7h-9.2v-14.9h9.2c4.1 0 7.5 3.4 7.5 7.5s-3.4 7.4-7.5 7.4m-9.2-29.9h8.3c3.1 0 5.7 2.6 5.7 5.7s-2.6 5.7-5.7 5.7h-8.3v-11.4zm13.2 13c2.6-1.4 4.4-3.9 4.4-7.2 0-5.1-4.1-9.2-9.2-9.2h-10.1c-1 0-1.8.8-1.8 1.8v33.3c0 1 .8 1.8 1.8 1.8h11.4c5.9-.2 10.5-5 10.5-11 0-4.7-2.9-8.2-7-9.5"/><path d="M-450.1 747.3h-19.3c-1 0-1.8.8-1.8 1.8s.8 1.8 1.8 1.8h7.9v31.6c0 1 .8 1.8 1.8 1.8s1.8-.8 1.8-1.8v-31.6h7.9c1 0 1.8-.8 1.8-1.8-.2-1-1-1.8-1.9-1.8"/><path d="M-416.8 747.3h-19.3c-1 0-1.8.8-1.8 1.8s.8 1.8 1.8 1.8h7.9v31.6c0 1 .8 1.8 1.8 1.8s1.8-.8 1.8-1.8v-31.6h7.9c1 0 1.8-.8 1.8-1.8-.1-1-.9-1.8-1.9-1.8"/><path d="M-409.6 793h-.4v-52.7h.4V793zm-33.3 0h-.4v-52.7h.4V793zm-33.3 0h-.4v-52.7h.4V793zm-33.4 0h-.4v-52.7h.4V793z"/></svg>