<svg id="Layer_1" xmlns="http://www.w3.org/2000/svg" viewBox="0 0 91.2 46"><style>.st0{fill:#231f20}</style><path class="st0" d="M43.4 15.8c0 .2 0 .3.1.5.2.9 1.1 1.5 2 1.3.6-.1 1-.4 1.3-.9 1.5-2.3 3-4.5 4.4-6.8.9-1.4 1.9-2.9 2.8-4.3.2-.2.2-.4 0-.6-.2-.2-.5-.1-.7.1L51 7.4c-1.5 1.5-3 3-4.5 4.6l-2.6 2.6c-.3.3-.5.7-.5 1.2m20.2 1.8c0 1.8-.1 3.3-.6 4.7-.4 1.3-1.3 2.2-2.6 2.5-.7.2-1.5.1-2.2-.2l-9.3-3.9c-.7-.3-1.5-.4-2.3-.5-.8-.1-1.5-.1-2.3 0-.9.1-1.7.3-2.6.7-2.9 1.2-5.9 2.5-8.8 3.7-1.9.8-4.1-.3-4.7-2.3-.3-.9-.4-1.9-.5-2.9-.1-.9-.1-1.8 0-2.6.1-1.6.4-3.2 1-4.7.9-2.6 2.4-4.9 4.4-6.9C35 3.3 37.2 1.9 39.7 1 40.8.6 41.9.3 43 .2c1.2-.2 2.4-.2 3.6-.2 3.2.2 6.2 1.1 8.9 2.9 2.6 1.7 4.6 4 6.1 6.7.8 1.6 1.4 3.3 1.7 5 .2 1.2.3 2.2.3 3"/><path class="st0" d="M1.7 35.3v2c0 .2 0 .2.2.2h3.6c.4 0 .9 0 1.3-.2.6-.2 1.1-.5 1.4-1.1.2-.4.2-.9.2-1.3-.1-.7-.4-1.2-1-1.6-.5-.2-1-.3-1.5-.3h-4c-.1 0-.1.1-.1.2-.1.7-.1 1.4-.1 2.1m.1 3.7v5.2c0 .2.1.2.2.2h3.7c.6 0 1.2-.1 1.7-.2.7-.2 1.3-.7 1.5-1.5.1-.4.1-.8.1-1.3-.1-.7-.4-1.3-1-1.7-.6-.5-1.4-.6-2.2-.6H1.9l-.1-.1M0 46V31.6h5.8c.9 0 1.7.1 2.5.5 1 .5 1.6 1.2 1.8 2.3.1.6.1 1.2-.1 1.8-.3.9-.9 1.5-1.7 1.9-.1 0-.2.1-.4.1.1 0 .2.1.3.1 1 .3 1.8.9 2.3 2 .3.7.3 1.4.3 2.1-.1.5-.2 1-.4 1.5-.4.9-1.1 1.4-2 1.7-.7.2-1.5.4-2.2.4H0"/><path class="st0" d="M51.2 45.7V35.6h1.6v1.3c.7-1.2 1.7-1.6 3-1.6 1.3.1 2.2.7 2.6 2 .2-.3.3-.5.5-.8.5-.6 1.1-1 1.9-1.2.7-.1 1.3-.1 2 .1.8.3 1.3.9 1.6 1.7.2.6.3 1.2.3 1.8v6.8h-1.5c-.1 0-.2 0-.2-.2v-5.7c0-.6 0-1.2-.2-1.8-.2-.8-.8-1.2-1.6-1.2-.6 0-1.1.1-1.5.5-.4.4-.6.8-.8 1.4-.2.6-.2 1.2-.2 1.8v5.3h-1.4c-.2 0-.2 0-.2-.2v-5.8c0-.6 0-1.1-.2-1.6-.2-.6-.5-1.1-1.2-1.2-1.1-.2-2.1.1-2.6 1.3-.2.6-.3 1.2-.4 1.9v5.7c0 .1 0 .1-.1.1-.4-.3-.9-.3-1.4-.3"/><path class="st0" d="M13.6 39.7h5.5v-.2c-.1-.4-.2-.9-.3-1.3-.8-1.9-3-1.9-4-1.1-.8.8-1.1 1.6-1.2 2.6m-.1 1.3c0 .9.2 1.8.7 2.5.3.5.7.8 1.3.9.4.1.8.2 1.3.1.7-.1 1.3-.3 1.8-.7l.6-.6.2-.2c.4.3.7.6 1.1.9-.2.3-.4.5-.7.7-.8.8-1.8 1.2-2.9 1.3-.8.1-1.6 0-2.4-.3-1.1-.5-1.8-1.3-2.2-2.3-.4-1-.6-2.1-.5-3.3 0-.7.2-1.4.5-2 .5-1.2 1.4-2.1 2.7-2.5 1.3-.4 2.6-.3 3.8.5.9.6 1.4 1.4 1.7 2.4.2.7.3 1.4.3 2.2 0 .4 0 .4-.4.4h-6.9z"/><path class="st0" d="M41.4 39.7c0-.5-.1-.9-.3-1.3-.7-1.9-2.8-2-3.9-1.3-.7.4-1 1.1-1.2 1.8-.1.3-.1.5-.2.8h5.6zm.3 3.4c.4.3.7.6 1.1.8-.2.3-.5.6-.7.8-.8.7-1.7 1.1-2.8 1.2-.8.1-1.6 0-2.4-.3-1.1-.5-1.8-1.3-2.2-2.3-.3-.7-.5-1.5-.5-2.3 0-1 0-1.9.4-2.8.5-1.3 1.4-2.3 2.7-2.7 1.5-.5 2.9-.3 4.2.7.7.6 1.1 1.3 1.4 2.2.2.7.3 1.5.3 2.3v.2c-.2.1-.2.1-.3.1H36l-.1.1c0 .9.2 1.7.7 2.4.5.7 1.1 1 1.9 1.1 1.3.1 2.3-.3 3.1-1.3 0-.1 0-.2.1-.2"/><path class="st0" d="M67.9 39.7h5.6c0-.4-.1-.8-.3-1.2-.7-2-2.8-2.1-3.9-1.4-1 .6-1.3 1.6-1.4 2.6m0 1.3c0 .9.2 1.8.8 2.5.5.7 1.2 1 2 1.1 1 .1 1.9-.2 2.6-.9.2-.2.4-.4.5-.6.4.3.7.5 1.1.8-.2.4-.5.7-.9.9-.9.8-2 1.1-3.1 1.1-.9 0-1.7-.2-2.4-.6-1-.6-1.6-1.4-1.9-2.5-.5-1.6-.5-3.2.1-4.8.5-1.4 1.5-2.3 3-2.6 1.3-.3 2.6-.1 3.8.8.7.5 1.1 1.3 1.4 2.1.3.8.4 1.6.3 2.4v.1c0 .1-.1.2-.2.2h-7.1z"/><path class="st0" d="M84.6 45.7h-1.5c-.1 0-.1 0-.1-.1V40c0-.6 0-1.2-.2-1.8-.3-1-.9-1.5-1.9-1.5-.3 0-.7 0-1 .1-.7.2-1.1.6-1.4 1.3-.2.6-.3 1.2-.3 1.9v5.5c0 .2 0 .2-.2.2h-1.4V35.5h1.6v1.3c.2-.2.3-.4.5-.6.6-.6 1.4-.9 2.2-.9.6 0 1.2 0 1.8.3.8.3 1.3.9 1.6 1.6.3.8.4 1.6.4 2.4v6c-.1 0-.1.1-.1.1"/><path class="st0" d="M91.2 35.5v1.3h-2.1c-.2 0-.2 0-.2.2v6.4c0 .2 0 .4.1.6.1.3.3.4.6.5.5.1 1-.1 1.4-.3.1 0 .1-.1.2-.1v1.4s0 .1-.1.1c-.8.4-1.7.5-2.6.3-.6-.2-1-.6-1.1-1.2-.1-.4-.1-.7-.1-1.1v-6.5c0-.2 0-.2-.2-.2h-1.4v-1.3h1.4c.1 0 .2 0 .2-.2v-3.8h1.6v3.8c0 .2 0 .2.2.2H91c.1-.1.1-.1.2-.1"/><path class="st0" d="M22.9 31.5h1.6v3.8c0 .2 0 .2.2.2h2.1v1.3h-2.1c-.2 0-.2 0-.2.2v6.3c0 .2 0 .5.1.7.1.3.3.5.6.5.4.1.8-.1 1.2-.2.1-.1.2-.1.4-.2v1.3c0 .1 0 .1-.1.2-.8.4-1.7.5-2.5.3-.7-.2-1-.6-1.1-1.3-.1-.4-.1-.9-.1-1.3v-6.2c0-.2 0-.2-.2-.2h-1.3c-.1 0-.2 0-.2-.2v-.9c0-.2 0-.2.2-.2h1.2c.2 0 .2 0 .2-.2v-3.9z"/><path class="st0" d="M33.4 44.1v1.4l-.1.1c-.3.2-.7.3-1.1.3-.5.1-.9.1-1.4 0-.7-.2-1.1-.7-1.2-1.4-.1-.4-.1-.7-.1-1.1V37c0-.1 0-.2-.2-.2H28c-.2 0-.2 0-.2-.2v-1h1.4c.2 0 .2 0 .2-.2v-3.8H31v3.8c0 .2 0 .2.2.2h2.1v1.3h-2.1c-.2 0-.2 0-.2.2v6.4c0 .2 0 .4.1.6.1.3.3.5.6.5.4 0 .8-.1 1.1-.2.3-.2.5-.3.6-.3"/><path class="st0" d="M44.6 45.7V35.5H46c.1 0 .2 0 .2.2v1.2c.4-.7 1-1.2 1.8-1.4.8-.2 1.5-.2 2.3.1-.2.4-.4.9-.6 1.3 0 .1-.1.1-.2.1-.3 0-.5-.1-.8-.1-1 0-1.6.5-2.1 1.3-.3.6-.4 1.2-.5 1.8v5.6c0 .3 0 .2-.2.2h-1.3z"/></svg>