<svg id="Layer_1" xmlns="http://www.w3.org/2000/svg" xmlns:xlink="http://www.w3.org/1999/xlink" viewBox="0 0 91.2 46"><style>.st0{fill:#231f20}</style><defs><path id="SVGID_1_" d="M0 17.1h89.5V46H0z"/></defs><clipPath id="SVGID_2_"><use xlink:href="#SVGID_1_" overflow="visible"/></clipPath><path class="st0" d="M.8 37H74v.5H.8z"/><path class="st0" d="M51.6 41.8c-.1-.7-.1-1.3-.2-2-.4.6-.7 1.3-1.1 2h1.3zm.7-3c.2 1.6.4 3.2.7 4.8h-1.1c0-.3-.1-.7-.1-1h-1.9c-.1.1-.2.3-.3.4-.1.2-.2.3-.3.5l-.1.1h-.9c0-.1.1-.1.1-.2.9-1.5 1.7-3 2.6-4.5.1-.1.1-.1.2-.1h1.1"/><path class="st0" d="M54.5 42.4v.2c0 .4.3.6.7.5.2-.1.4-.2.5-.4.2-.4.4-.8.3-1.2 0-.3-.2-.5-.6-.5-.2 0-.4.1-.6.3-.2.2-.3.6-.3 1.1m1.7-1.8c.1-.6.3-1.2.4-1.8h1c-.3 1.6-.7 3.2-1 4.8h-1c0-.1 0-.3.1-.4-.1.1-.2.2-.3.2-.4.3-.9.3-1.3.2-.4-.1-.6-.5-.6-.9-.1-.8.4-1.9 1.1-2.3.3-.2.6-.2 1-.2.2 0 .4.1.6.4"/><path class="st0" d="M68 43c.3 0 .5-.1.7-.3.3-.4.4-.9.4-1.3 0-.3-.1-.5-.4-.5-.3-.1-.7.1-.9.4-.2.4-.3.7-.3 1.1 0 .4.2.6.5.6m.7-2.9c.2 0 .5.1.7.1.5.2.7.6.7 1.1 0 .8-.3 1.5-.9 1.9-.5.4-1.1.5-1.8.3-.5-.1-.8-.5-.9-1-.1-.8.3-1.9 1.2-2.3.3 0 .6-.1 1-.1"/><path class="st0" d="M66.1 41.1h-.9c0-.2 0-.3-.2-.4-.2 0-.4 0-.6.2-.1.2-.1.3.1.4.2.1.5.1.7.2.1 0 .2.1.3.1.4.2.6.5.4 1-.2.5-.6.8-1.1 1-.4.1-.8.1-1.2 0-.5-.2-.7-.5-.6-1h.9v.1c.1.1.1.2.2.3.2.1.6.1.7-.1.2-.2.2-.4-.1-.5-.2-.1-.4-.1-.6-.2h-.2c-.7-.2-.9-.9-.4-1.5.3-.4.7-.5 1.2-.5.3 0 .5 0 .8.1.5 0 .7.4.6.8"/><path class="st0" d="M61.3 40.2c0 .1-.1.1-.1.2-.6 1-1.2 2.1-1.8 3.1-.1.1-.1.1-.2.1h-1c-.2-1.1-.3-2.2-.5-3.4h1l.1.1c.1.6.2 1.3.2 2v.2c.2-.4.4-.8.6-1.1.2-.3.4-.7.5-1 0-.1.1-.1.2-.1.4-.1.7-.1 1-.1"/><path class="st0" d="M73.2 40.2c-.1.3-.1.6-.2.9h-.4c-.4 0-.7.2-.8.6-.1.5-.2 1.1-.4 1.6-.1.3-.1.3-.3.3h-.7c.2-1.1.5-2.3.7-3.4h.9c0 .2-.1.3-.1.5.3-.4.7-.5 1.3-.5"/><path class="st0" d="M62.1 43.6h-1c.1-.5.2-.9.3-1.4.1-.6.3-1.3.4-1.9 0-.1 0-.1.2-.1h.9c-.3 1.1-.5 2.3-.8 3.4"/><path class="st0" d="M61.9 39.6c.1-.3.1-.6.2-.9h1.1c-.1.3-.1.5-.2.8l-.1.1h-1"/><path class="st0" d="M3.2 28h.1c1.2-.4 2.3-.8 3.4-1.4 1.1-.6 2.1-1.3 2.9-2.3 1-1.1 1.5-2.4 1.4-3.9 0-.2-.1-.5-.2-.7-.1-.3-.4-.4-.7-.4-.6 0-1.1.2-1.6.5-.9.5-1.6 1.2-2.2 2-.9 1.2-1.7 2.6-2.3 4-.3.7-.5 1.4-.8 2.2m34.2-10.9c-.3 1.4-.6 2.9-.9 4.3-.4 1.7-.7 3.3-1.1 5-.4 2.1-.9 4.1-1.3 6.2-.2 1-.4 1.9-.6 2.9h-3.9l3.3-15.6c-.1.2-.2.3-.3.5-2.6 4.9-5.2 9.8-7.8 14.6-.1.2-.2.4-.3.5-.2.1-.4 0-.6 0h-2.7l-1.5-15.6-3.3 15.6h-3.7c.2-1.1.5-2.3.7-3.4-.3.3-.6.5-.8.8-1.4 1.2-2.9 2.2-4.8 2.6-1.2.3-2.5.4-3.8.1-.9-.2-1.8-.6-2.6-1.3-.7-.7-1.1-1.5-1.3-2.4 0-.2-.1-.4-.1-.6v-1.4l.3-1.8c.8-3 2.4-5.5 4.7-7.4 1.1-.9 2.3-1.6 3.7-1.9.9-.2 1.9-.3 2.8.1.6.2 1 .6 1.2 1.2.2.8.1 1.6-.1 2.3-.3 1.2-1.1 2.1-2 2.9-1 .8-2.1 1.5-3.2 2-1.4.6-2.9 1.1-4.4 1.5-.1 0-.1.1-.1.1-.3 1-.5 2.1-.5 3.2 0 .7.2 1.4.6 2 .3.5.8.9 1.4 1 .6.1 1.2.1 1.8 0 1.2-.2 2.4-.6 3.4-1.2 1.6-.9 2.9-2.1 4-3.5 0 0 .1-.1.1-.2.3-1.3.6-2.7.9-4 .4-1.7.7-3.4 1.1-5.2.3-1.3.6-2.6.8-3.9H23c0 .3 0 .6.1.9.1.7.1 1.5.2 2.2.1.7.1 1.5.2 2.2.1.7.1 1.5.2 2.2.1.9.1 1.8.2 2.6.1.9.1 1.8.2 2.6v.6c.1 0 .1-.1.1-.1.3-.5.6-1 .8-1.6 2-3.8 4-7.7 6.1-11.5v-.1h6.3z"/><path class="st0" d="M72.7 46c.4-.7.7-1.3 1-2 1.4-2.8 2.9-5.5 4.3-8.3 0-.1.1-.2 0-.2-.2-1.1-.4-2.3-.6-3.4-.2-1.2-.4-2.4-.6-3.7-.2-1.1-.4-2.3-.6-3.4-.1-.8-.3-1.5-.4-2.3H80c.3 2.9.6 5.9.9 8.9.1-.1.1-.1.1-.2 1.5-2.9 3.1-5.7 4.6-8.6.1-.1.1-.1.2-.1h3.6c0 .1-.1.1-.1.2-2.5 4.1-5 8.3-7.4 12.4-.3.5-.6 1.1-.9 1.7l-4.5 9-.1.1c-1.2-.1-2.4-.1-3.7-.1"/><path class="st0" d="M60.7 35.6h-3.9l.3-1.2c.4-1.9.8-3.7 1.2-5.6.1-.6.3-1.2.4-1.8.2-1.2-.6-2-1.8-1.9-1.4.1-2.2.9-2.6 2.2-.2.7-.4 1.4-.5 2.2-.4 1.9-.8 3.7-1.2 5.6 0 .2-.1.3-.1.5h-3.8c.9-4.3 1.9-8.6 2.7-12.9H55c-.1.6-.2 1.2-.3 1.9.1-.1.2-.3.3-.4 1-1 2.2-1.7 3.6-1.8.8-.1 1.6-.1 2.3.2 1.1.4 1.7 1.3 1.8 2.5.1.7 0 1.3-.2 2-.5 2.7-1.1 5.6-1.8 8.5.1-.1.1-.1 0 0"/><path class="st0" d="M71.9 27.4c.1-.6.2-1.2 0-1.7-.2-.6-.5-.9-1.1-1.1-.7-.1-1.4 0-2 .4-.7.5-1.1 1.2-1.4 2 0 .1-.1.2-.1.4h4.6zm2.6 4.1c-.2.8-.6 1.5-1.1 2.1-.8 1-1.8 1.6-3 1.9-1.4.4-2.9.5-4.3.1-.7-.2-1.4-.4-2-.9-.7-.6-1-1.4-1.2-2.3-.2-1.2 0-2.3.2-3.4.3-1.3.8-2.5 1.5-3.6 1.2-1.8 2.9-2.8 5-3.2 1-.2 2-.1 3 .2 1.5.5 2.4 1.5 2.8 3.1.2 1 .2 2 0 2.9-.1.5-.2 1.1-.3 1.6h-8.7c-.1.7-.3 1.4-.1 2.1.2.7.6 1.1 1.4 1.3.7.1 1.5.1 2.1-.4.5-.3.8-.7 1-1.2.1-.1.1-.2.2-.1h3.5z"/><path class="st0" d="M45.5 26.9c0-.2 0-.4-.1-.7-.1-.8-.6-1.4-1.4-1.6-.7-.2-1.3-.1-1.9.2-.7.3-1.2.9-1.6 1.6-.4.8-.7 1.7-.9 2.6-.2.8-.3 1.6-.2 2.4.1.5.3 1 .7 1.3.3.2.7.3 1.1.4 1.1.1 2-.2 2.7-1.1.5-.6.8-1.2 1-1.9.4-1 .6-2 .6-3.2m-1.6-4.8c1 0 1.9.2 2.8.5 1.4.6 2.3 1.7 2.5 3.2.3 1.6 0 3.1-.5 4.5-.7 1.7-1.7 3.1-3.3 4.1-1 .7-2.2 1.1-3.4 1.2-1 .1-2 .1-3-.2-1.2-.3-2.2-1-2.9-2.1-.4-.6-.6-1.3-.6-2-.1-2.5.6-4.7 2.2-6.6 1.2-1.4 2.7-2.3 4.6-2.6.5.1 1.1 0 1.6 0"/></svg>